  0
SECTION
  2
BLOCKS
  0
ENDSEC
  0
SECTION
  2
ENTITIES
  0
LINE
  8
0
 10
155.942
 20
-152.81
 11
157.939
 21
-152.192
  0
LINE
  8
0
 10
157.939
 20
-152.192
 11
159.764
 21
-151.172
  0
LINE
  8
0
 10
159.764
 20
-151.172
 11
161.337
 21
-149.795
  0
LINE
  8
0
 10
161.337
 20
-149.795
 11
162.619
 21
-148.07
  0
LINE
  8
0
 10
162.619
 20
-148.07
 11
172.619
 21
-131.07
  0
LINE
  8
0
 10
172.619
 20
-131.07
 11
173.485
 21
-129.167
  0
LINE
  8
0
 10
173.485
 20
-129.167
 11
173.936
 21
-127.126
  0
LINE
  8
0
 10
173.936
 20
-127.126
 11
174
 21
-126
  0
LINE
  8
0
 10
174
 20
-126
 11
174
 21
-93
  0
LINE
  8
0
 10
174
 20
-93
 11
149
 21
-93
  0
LINE
  8
0
 10
149
 20
-93
 11
149
 21
-79
  0
LINE
  8
0
 10
149
 20
-79
 11
174
 21
-79
  0
LINE
  8
0
 10
174
 20
-79
 11
174
 21
-31
  0
LINE
  8
0
 10
174
 20
-31
 11
173.781
 21
-28.9209
  0
LINE
  8
0
 10
173.781
 20
-28.9209
 11
173.135
 21
-26.9326
  0
LINE
  8
0
 10
173.135
 20
-26.9326
 11
172.09
 21
-25.1221
  0
LINE
  8
0
 10
172.09
 20
-25.1221
 11
170.691
 21
-23.5686
  0
LINE
  8
0
 10
170.691
 20
-23.5686
 11
169
 21
-22.3398
  0
LINE
  8
0
 10
169
 20
-22.3398
 11
167.09
 21
-21.4894
  0
LINE
  8
0
 10
167.09
 20
-21.4894
 11
164
 21
-21
  0
LINE
  8
0
 10
164
 20
-21
 11
160
 21
-21
  0
LINE
  8
0
 10
160
 20
-21
 11
160
 21
-66
  0
LINE
  8
0
 10
160
 20
-66
 11
140
 21
-66
  0
LINE
  8
0
 10
140
 20
-66
 11
140
 21
-16.4637
  0
LINE
  8
0
 10
140
 20
-16.4637
 11
139.186
 21
-16.2225
  0
LINE
  8
0
 10
139.186
 20
-16.2225
 11
139.018
 21
-16.1745
  0
LINE
  8
0
 10
139.018
 20
-16.1745
 11
138.86
 21
-16.1306
  0
LINE
  8
0
 10
138.86
 20
-16.1306
 11
138.495
 21
-15.25
  0
LINE
  8
0
 10
138.495
 20
-15.25
 11
137.303
 21
-13.6967
  0
LINE
  8
0
 10
137.303
 20
-13.6967
 11
135.75
 21
-12.5048
  0
LINE
  8
0
 10
135.75
 20
-12.5048
 11
133.941
 21
-11.7556
  0
LINE
  8
0
 10
133.941
 20
-11.7556
 11
132
 21
-11.5
  0
LINE
  8
0
 10
132
 20
-11.5
 11
130.059
 21
-11.7556
  0
LINE
  8
0
 10
130.059
 20
-11.7556
 11
128.25
 21
-12.5048
  0
LINE
  8
0
 10
128.25
 20
-12.5048
 11
127.232
 21
-13.2857
  0
LINE
  8
0
 10
127.232
 20
-13.2857
 11
125.615
 21
-12.9567
  0
LINE
  8
0
 10
125.615
 20
-12.9567
 11
125.444
 21
-12.9234
  0
LINE
  8
0
 10
125.444
 20
-12.9234
 11
122.87
 21
-12.4463
  0
LINE
  8
0
 10
122.87
 20
-12.4463
 11
122.698
 21
-12.416
  0
LINE
  8
0
 10
122.698
 20
-12.416
 11
120.116
 21
-11.9839
  0
LINE
  8
0
 10
120.116
 20
-11.9839
 11
119.943
 21
-11.9566
  0
LINE
  8
0
 10
119.943
 20
-11.9566
 11
117.354
 21
-11.5696
  0
LINE
  8
0
 10
117.354
 20
-11.5696
 11
117.181
 21
-11.5453
  0
LINE
  8
0
 10
117.181
 20
-11.5453
 11
114.586
 21
-11.2036
  0
LINE
  8
0
 10
114.586
 20
-11.2036
 11
114.412
 21
-11.1824
  0
LINE
  8
0
 10
114.412
 20
-11.1824
 11
111.811
 21
-10.886
  0
LINE
  8
0
 10
111.811
 20
-10.886
 11
111.638
 21
-10.8678
  0
LINE
  8
0
 10
111.638
 20
-10.8678
 11
109.032
 21
-10.6168
  0
LINE
  8
0
 10
109.032
 20
-10.6168
 11
108.858
 21
-10.6016
  0
LINE
  8
0
 10
108.858
 20
-10.6016
 11
106.248
 21
-10.3962
  0
LINE
  8
0
 10
106.248
 20
-10.3962
 11
106.074
 21
-10.384
  0
LINE
  8
0
 10
106.074
 20
-10.384
 11
103.461
 21
-10.2242
  0
LINE
  8
0
 10
103.461
 20
-10.2242
 11
103.287
 21
-10.2151
  0
LINE
  8
0
 10
103.287
 20
-10.2151
 11
100.671
 21
-10.1009
  0
LINE
  8
0
 10
100.671
 20
-10.1009
 11
100.497
 21
-10.0948
  0
LINE
  8
0
 10
100.497
 20
-10.0948
 11
97.8796
 21
-10.0263
  0
LINE
  8
0
 10
97.8796
 20
-10.0263
 11
97.7052
 21
-10.0232
  0
LINE
  8
0
 10
97.7052
 20
-10.0232
 11
95.0873
 21
-10.0004
  0
LINE
  8
0
 10
95.0873
 20
-10.0004
 11
94.9127
 21
-10.0004
  0
LINE
  8
0
 10
94.9127
 20
-10.0004
 11
92.2948
 21
-10.0232
  0
LINE
  8
0
 10
92.2948
 20
-10.0232
 11
92.1204
 21
-10.0263
  0
LINE
  8
0
 10
92.1204
 20
-10.0263
 11
89.5033
 21
-10.0948
  0
LINE
  8
0
 10
89.5033
 20
-10.0948
 11
89.3289
 21
-10.1009
  0
LINE
  8
0
 10
89.3289
 20
-10.1009
 11
86.7134
 21
-10.2151
  0
LINE
  8
0
 10
86.7134
 20
-10.2151
 11
86.5391
 21
-10.2242
  0
LINE
  8
0
 10
86.5391
 20
-10.2242
 11
83.9261
 21
-10.384
  0
LINE
  8
0
 10
83.9261
 20
-10.384
 11
83.752
 21
-10.3962
  0
LINE
  8
0
 10
83.752
 20
-10.3962
 11
81.1421
 21
-10.6016
  0
LINE
  8
0
 10
81.1421
 20
-10.6016
 11
80.9682
 21
-10.6168
  0
LINE
  8
0
 10
80.9682
 20
-10.6168
 11
78.3623
 21
-10.8678
  0
LINE
  8
0
 10
78.3623
 20
-10.8678
 11
78.1887
 21
-10.886
  0
LINE
  8
0
 10
78.1887
 20
-10.886
 11
75.5875
 21
-11.1824
  0
LINE
  8
0
 10
75.5875
 20
-11.1824
 11
75.4144
 21
-11.2036
  0
LINE
  8
0
 10
75.4144
 20
-11.2036
 11
73.969
 21
-11.3939
  0
LINE
  8
0
 10
73.969
 20
-11.3939
 11
73.4952
 21
-10.25
  0
LINE
  8
0
 10
73.4952
 20
-10.25
 11
72.3033
 21
-8.69669
  0
LINE
  8
0
 10
72.3033
 20
-8.69669
 11
70.75
 21
-7.50481
  0
LINE
  8
0
 10
70.75
 20
-7.50481
 11
68.9411
 21
-6.75555
  0
LINE
  8
0
 10
68.9411
 20
-6.75555
 11
67
 21
-6.5
  0
LINE
  8
0
 10
67
 20
-6.5
 11
65.0589
 21
-6.75555
  0
LINE
  8
0
 10
65.0589
 20
-6.75555
 11
63.25
 21
-7.50481
  0
LINE
  8
0
 10
63.25
 20
-7.50481
 11
61.6967
 21
-8.69669
  0
LINE
  8
0
 10
61.6967
 20
-8.69669
 11
60.5048
 21
-10.25
  0
LINE
  8
0
 10
60.5048
 20
-10.25
 11
59.7556
 21
-12.0589
  0
LINE
  8
0
 10
59.7556
 20
-12.0589
 11
59.5012
 21
-13.991
  0
LINE
  8
0
 10
59.5012
 20
-13.991
 11
59.0929
 21
-14.0815
  0
LINE
  8
0
 10
59.0929
 20
-14.0815
 11
58.9229
 21
-14.1208
  0
LINE
  8
0
 10
58.9229
 20
-14.1208
 11
56.3773
 21
-14.7319
  0
LINE
  8
0
 10
56.3773
 20
-14.7319
 11
56.2079
 21
-14.7742
  0
LINE
  8
0
 10
56.2079
 20
-14.7742
 11
53.6733
 21
-15.4297
  0
LINE
  8
0
 10
53.6733
 20
-15.4297
 11
53.5047
 21
-15.4748
  0
LINE
  8
0
 10
53.5047
 20
-15.4748
 11
50.982
 21
-16.1745
  0
LINE
  8
0
 10
50.982
 20
-16.1745
 11
50.8143
 21
-16.2225
  0
LINE
  8
0
 10
50.8143
 20
-16.2225
 11
48.3041
 21
-16.9661
  0
LINE
  8
0
 10
48.3041
 20
-16.9661
 11
48.1372
 21
-17.0171
  0
LINE
  8
0
 10
48.1372
 20
-17.0171
 11
45.6404
 21
-17.8044
  0
LINE
  8
0
 10
45.6404
 20
-17.8044
 11
45.4744
 21
-17.8583
  0
LINE
  8
0
 10
45.4744
 20
-17.8583
 11
42.9917
 21
-18.689
  0
LINE
  8
0
 10
42.9917
 20
-18.689
 11
42.8267
 21
-18.7458
  0
LINE
  8
0
 10
42.8267
 20
-18.7458
 11
40.3589
 21
-19.6197
  0
LINE
  8
0
 10
40.3589
 20
-19.6197
 11
40.1949
 21
-19.6794
  0
LINE
  8
0
 10
40.1949
 20
-19.6794
 11
37.7428
 21
-20.5962
  0
LINE
  8
0
 10
37.7428
 20
-20.5962
 11
37.5798
 21
-20.6588
  0
LINE
  8
0
 10
37.5798
 20
-20.6588
 11
35.144
 21
-21.6183
  0
LINE
  8
0
 10
35.144
 20
-21.6183
 11
34.9822
 21
-21.6836
  0
LINE
  8
0
 10
34.9822
 20
-21.6836
 11
32.5635
 21
-22.6855
  0
LINE
  8
0
 10
32.5635
 20
-22.6855
 11
32.4029
 21
-22.7537
  0
LINE
  8
0
 10
32.4029
 20
-22.7537
 11
30.002
 21
-23.7976
  0
LINE
  8
0
 10
30.002
 20
-23.7976
 11
29.8426
 21
-23.8686
  0
LINE
  8
0
 10
29.8426
 20
-23.8686
 11
27.4604
 21
-24.9542
  0
LINE
  8
0
 10
27.4604
 20
-24.9542
 11
27.3021
 21
-25.028
  0
LINE
  8
0
 10
27.3021
 20
-25.028
 11
24.9392
 21
-26.1551
  0
LINE
  8
0
 10
24.9392
 20
-26.1551
 11
24.7824
 21
-26.2316
  0
LINE
  8
0
 10
24.7824
 20
-26.2316
 11
22.4395
 21
-27.3997
  0
LINE
  8
0
 10
22.4395
 20
-27.3997
 11
22.284
 21
-27.4789
  0
LINE
  8
0
 10
22.284
 20
-27.4789
 11
19.9618
 21
-28.6877
  0
LINE
  8
0
 10
19.9618
 20
-28.6877
 11
19.8076
 21
-28.7697
  0
LINE
  8
0
 10
19.8076
 20
-28.7697
 11
17.5069
 21
-30.0189
  0
LINE
  8
0
 10
17.5069
 20
-30.0189
 11
15.7841
 21
-31.203
  0
LINE
  8
0
 10
15.7841
 20
-31.203
 11
14.345
 21
-32.7195
  0
LINE
  8
0
 10
14.345
 20
-32.7195
 11
13.2527
 21
-34.502
  0
LINE
  8
0
 10
13.2527
 20
-34.502
 11
12.5549
 21
-36.4726
  0
LINE
  8
0
 10
12.5549
 20
-36.4726
 11
12.282
 21
-38.5453
  0
LINE
  8
0
 10
12.282
 20
-38.5453
 11
12.32
 21
-39.0281
  0
LINE
  8
0
 10
12.32
 20
-39.0281
 11
12.32
 21
-72.5895
  0
LINE
  8
0
 10
12.32
 20
-72.5895
 11
11.0589
 21
-72.7556
  0
LINE
  8
0
 10
11.0589
 20
-72.7556
 11
9.25
 21
-73.5048
  0
LINE
  8
0
 10
9.25
 20
-73.5048
 11
7.69669
 21
-74.6967
  0
LINE
  8
0
 10
7.69669
 20
-74.6967
 11
6.50481
 21
-76.25
  0
LINE
  8
0
 10
6.50481
 20
-76.25
 11
5.75555
 21
-78.0589
  0
LINE
  8
0
 10
5.75555
 20
-78.0589
 11
5.5
 21
-80
  0
LINE
  8
0
 10
5.5
 20
-80
 11
5.75555
 21
-81.9411
  0
LINE
  8
0
 10
5.75555
 20
-81.9411
 11
6.50481
 21
-83.75
  0
LINE
  8
0
 10
6.50481
 20
-83.75
 11
7.69669
 21
-85.3033
  0
LINE
  8
0
 10
7.69669
 20
-85.3033
 11
9.25
 21
-86.4952
  0
LINE
  8
0
 10
9.25
 20
-86.4952
 11
11.0589
 21
-87.2444
  0
LINE
  8
0
 10
11.0589
 20
-87.2444
 11
12.32
 21
-87.4105
  0
LINE
  8
0
 10
12.32
 20
-87.4105
 11
12.32
 21
-117
  0
LINE
  8
0
 10
12.32
 20
-117
 11
12.5385
 21
-119.079
  0
LINE
  8
0
 10
12.5385
 20
-119.079
 11
13.1845
 21
-121.067
  0
LINE
  8
0
 10
13.1845
 20
-121.067
 11
14.2298
 21
-122.878
  0
LINE
  8
0
 10
14.2298
 20
-122.878
 11
15.6287
 21
-124.431
  0
LINE
  8
0
 10
15.6287
 20
-124.431
 11
17.32
 21
-125.66
  0
LINE
  8
0
 10
17.32
 20
-125.66
 11
19.2298
 21
-126.511
  0
LINE
  8
0
 10
19.2298
 20
-126.511
 11
22.32
 21
-127
  0
LINE
  8
0
 10
22.32
 20
-127
 11
87.0435
 21
-127
  0
LINE
  8
0
 10
87.0435
 20
-127
 11
87.1047
 21
-127.006
  0
LINE
  8
0
 10
87.1047
 20
-127.006
 11
87.1218
 21
-127.008
  0
LINE
  8
0
 10
87.1218
 20
-127.008
 11
87.1388
 21
-127.01
  0
LINE
  8
0
 10
87.1388
 20
-127.01
 11
87.1563
 21
-127.013
  0
LINE
  8
0
 10
87.1563
 20
-127.013
 11
87.1738
 21
-127.016
  0
LINE
  8
0
 10
87.1738
 20
-127.016
 11
87.191
 21
-127.019
  0
LINE
  8
0
 10
87.191
 20
-127.019
 11
87.2075
 21
-127.022
  0
LINE
  8
0
 10
87.2075
 20
-127.022
 11
87.2251
 21
-127.026
  0
LINE
  8
0
 10
87.2251
 20
-127.026
 11
87.2422
 21
-127.03
  0
LINE
  8
0
 10
87.2422
 20
-127.03
 11
87.2587
 21
-127.034
  0
LINE
  8
0
 10
87.2587
 20
-127.034
 11
87.2757
 21
-127.039
  0
LINE
  8
0
 10
87.2757
 20
-127.039
 11
87.2917
 21
-127.044
  0
LINE
  8
0
 10
87.2917
 20
-127.044
 11
87.3092
 21
-127.049
  0
LINE
  8
0
 10
87.3092
 20
-127.049
 11
87.3251
 21
-127.055
  0
LINE
  8
0
 10
87.3251
 20
-127.055
 11
87.342
 21
-127.061
  0
LINE
  8
0
 10
87.342
 20
-127.061
 11
87.3582
 21
-127.067
  0
LINE
  8
0
 10
87.3582
 20
-127.067
 11
87.3752
 21
-127.073
  0
LINE
  8
0
 10
87.3752
 20
-127.073
 11
87.39
 21
-127.08
  0
LINE
  8
0
 10
87.39
 20
-127.08
 11
87.4062
 21
-127.087
  0
LINE
  8
0
 10
87.4062
 20
-127.087
 11
87.4227
 21
-127.094
  0
LINE
  8
0
 10
87.4227
 20
-127.094
 11
87.4388
 21
-127.102
  0
LINE
  8
0
 10
87.4388
 20
-127.102
 11
87.4536
 21
-127.109
  0
LINE
  8
0
 10
87.4536
 20
-127.109
 11
87.469
 21
-127.117
  0
LINE
  8
0
 10
87.469
 20
-127.117
 11
87.4844
 21
-127.126
  0
LINE
  8
0
 10
87.4844
 20
-127.126
 11
87.5003
 21
-127.135
  0
LINE
  8
0
 10
87.5003
 20
-127.135
 11
87.5145
 21
-127.143
  0
LINE
  8
0
 10
87.5145
 20
-127.143
 11
87.5297
 21
-127.152
  0
LINE
  8
0
 10
87.5297
 20
-127.152
 11
87.5443
 21
-127.162
  0
LINE
  8
0
 10
87.5443
 20
-127.162
 11
87.5592
 21
-127.171
  0
LINE
  8
0
 10
87.5592
 20
-127.171
 11
87.5731
 21
-127.181
  0
LINE
  8
0
 10
87.5731
 20
-127.181
 11
87.588
 21
-127.192
  0
LINE
  8
0
 10
87.588
 20
-127.192
 11
87.6013
 21
-127.201
  0
LINE
  8
0
 10
87.6013
 20
-127.201
 11
87.6152
 21
-127.212
  0
LINE
  8
0
 10
87.6152
 20
-127.212
 11
87.6296
 21
-127.224
  0
LINE
  8
0
 10
87.6296
 20
-127.224
 11
87.6424
 21
-127.234
  0
LINE
  8
0
 10
87.6424
 20
-127.234
 11
87.6553
 21
-127.245
  0
LINE
  8
0
 10
87.6553
 20
-127.245
 11
87.6692
 21
-127.257
  0
LINE
  8
0
 10
87.6692
 20
-127.257
 11
87.6814
 21
-127.269
  0
LINE
  8
0
 10
87.6814
 20
-127.269
 11
87.6946
 21
-127.281
  0
LINE
  8
0
 10
87.6946
 20
-127.281
 11
87.7068
 21
-127.293
  0
LINE
  8
0
 10
87.7068
 20
-127.293
 11
87.7188
 21
-127.305
  0
LINE
  8
0
 10
87.7188
 20
-127.305
 11
87.7314
 21
-127.319
  0
LINE
  8
0
 10
87.7314
 20
-127.319
 11
87.7425
 21
-127.331
  0
LINE
  8
0
 10
87.7425
 20
-127.331
 11
87.7549
 21
-127.345
  0
LINE
  8
0
 10
87.7549
 20
-127.345
 11
87.7658
 21
-127.358
  0
LINE
  8
0
 10
87.7658
 20
-127.358
 11
87.7764
 21
-127.37
  0
LINE
  8
0
 10
87.7764
 20
-127.37
 11
87.7878
 21
-127.385
  0
LINE
  8
0
 10
87.7878
 20
-127.385
 11
87.7986
 21
-127.399
  0
LINE
  8
0
 10
87.7986
 20
-127.399
 11
87.8084
 21
-127.412
  0
LINE
  8
0
 10
87.8084
 20
-127.412
 11
87.819
 21
-127.427
  0
LINE
  8
0
 10
87.819
 20
-127.427
 11
87.8286
 21
-127.441
  0
LINE
  8
0
 10
87.8286
 20
-127.441
 11
87.8384
 21
-127.456
  0
LINE
  8
0
 10
87.8384
 20
-127.456
 11
87.8477
 21
-127.47
  0
LINE
  8
0
 10
87.8477
 20
-127.47
 11
87.8571
 21
-127.486
  0
LINE
  8
0
 10
87.8571
 20
-127.486
 11
87.8654
 21
-127.5
  0
LINE
  8
0
 10
87.8654
 20
-127.5
 11
87.8744
 21
-127.516
  0
LINE
  8
0
 10
87.8744
 20
-127.516
 11
87.8828
 21
-127.531
  0
LINE
  8
0
 10
87.8828
 20
-127.531
 11
87.8908
 21
-127.546
  0
LINE
  8
0
 10
87.8908
 20
-127.546
 11
87.8981
 21
-127.561
  0
LINE
  8
0
 10
87.8981
 20
-127.561
 11
87.9058
 21
-127.577
  0
LINE
  8
0
 10
87.9058
 20
-127.577
 11
87.9134
 21
-127.594
  0
LINE
  8
0
 10
87.9134
 20
-127.594
 11
87.9204
 21
-127.61
  0
LINE
  8
0
 10
87.9204
 20
-127.61
 11
87.9265
 21
-127.625
  0
LINE
  8
0
 10
87.9265
 20
-127.625
 11
87.9332
 21
-127.642
  0
LINE
  8
0
 10
87.9332
 20
-127.642
 11
87.9393
 21
-127.658
  0
LINE
  8
0
 10
87.9393
 20
-127.658
 11
87.9453
 21
-127.675
  0
LINE
  8
0
 10
87.9453
 20
-127.675
 11
87.9506
 21
-127.691
  0
LINE
  8
0
 10
87.9506
 20
-127.691
 11
87.9561
 21
-127.708
  0
LINE
  8
0
 10
87.9561
 20
-127.708
 11
87.9608
 21
-127.724
  0
LINE
  8
0
 10
87.9608
 20
-127.724
 11
87.9656
 21
-127.741
  0
LINE
  8
0
 10
87.9656
 20
-127.741
 11
87.9698
 21
-127.758
  0
LINE
  8
0
 10
87.9698
 20
-127.758
 11
87.9739
 21
-127.775
  0
LINE
  8
0
 10
87.9739
 20
-127.775
 11
87.9778
 21
-127.793
  0
LINE
  8
0
 10
87.9778
 20
-127.793
 11
87.9812
 21
-127.809
  0
LINE
  8
0
 10
87.9812
 20
-127.809
 11
87.9844
 21
-127.826
  0
LINE
  8
0
 10
87.9844
 20
-127.826
 11
87.9873
 21
-127.844
  0
LINE
  8
0
 10
87.9873
 20
-127.844
 11
87.9899
 21
-127.861
  0
LINE
  8
0
 10
87.9899
 20
-127.861
 11
87.9922
 21
-127.878
  0
LINE
  8
0
 10
87.9922
 20
-127.878
 11
87.9942
 21
-127.896
  0
LINE
  8
0
 10
87.9942
 20
-127.896
 11
87.9958
 21
-127.913
  0
LINE
  8
0
 10
87.9958
 20
-127.913
 11
87.9972
 21
-127.93
  0
LINE
  8
0
 10
87.9972
 20
-127.93
 11
87.9982
 21
-127.948
  0
LINE
  8
0
 10
87.9982
 20
-127.948
 11
87.999
 21
-127.965
  0
LINE
  8
0
 10
87.999
 20
-127.965
 11
87.9995
 21
-127.983
  0
LINE
  8
0
 10
87.9995
 20
-127.983
 11
88.0004
 21
-128.087
  0
LINE
  8
0
 10
88.0004
 20
-128.087
 11
88.0163
 21
-128.087
  0
LINE
  8
0
 10
88.0163
 20
-128.087
 11
88.2007
 21
-130.002
  0
LINE
  8
0
 10
88.2007
 20
-130.002
 11
88.8293
 21
-131.996
  0
LINE
  8
0
 10
88.8293
 20
-131.996
 11
89.8587
 21
-133.816
  0
LINE
  8
0
 10
89.8587
 20
-133.816
 11
91.2439
 21
-135.381
  0
LINE
  8
0
 10
91.2439
 20
-135.381
 11
92.9244
 21
-136.625
  0
LINE
  8
0
 10
92.9244
 20
-136.625
 11
94.8267
 21
-137.492
  0
LINE
  8
0
 10
94.8267
 20
-137.492
 11
96.8678
 21
-137.944
  0
LINE
  8
0
 10
96.8678
 20
-137.944
 11
98.0872
 21
-138.008
  0
LINE
  8
0
 10
98.0872
 20
-138.008
 11
98.9999
 21
-138
  0
LINE
  8
0
 10
98.9999
 20
-138
 11
100.692
 21
-138.015
  0
LINE
  8
0
 10
100.692
 20
-138.015
 11
102.386
 21
-138.059
  0
LINE
  8
0
 10
102.386
 20
-138.059
 11
104.076
 21
-138.133
  0
LINE
  8
0
 10
104.076
 20
-138.133
 11
105.767
 21
-138.237
  0
LINE
  8
0
 10
105.767
 20
-138.237
 11
107.454
 21
-138.369
  0
LINE
  8
0
 10
107.454
 20
-138.369
 11
109.139
 21
-138.532
  0
LINE
  8
0
 10
109.139
 20
-138.532
 11
110.821
 21
-138.723
  0
LINE
  8
0
 10
110.821
 20
-138.723
 11
112.5
 21
-138.944
  0
LINE
  8
0
 10
112.5
 20
-138.944
 11
114.174
 21
-139.195
  0
LINE
  8
0
 10
114.174
 20
-139.195
 11
115.844
 21
-139.474
  0
LINE
  8
0
 10
115.844
 20
-139.474
 11
117.509
 21
-139.783
  0
LINE
  8
0
 10
117.509
 20
-139.783
 11
119.167
 21
-140.12
  0
LINE
  8
0
 10
119.167
 20
-140.12
 11
120.821
 21
-140.487
  0
LINE
  8
0
 10
120.821
 20
-140.487
 11
122.467
 21
-140.882
  0
LINE
  8
0
 10
122.467
 20
-140.882
 11
124.105
 21
-141.305
  0
LINE
  8
0
 10
124.105
 20
-141.305
 11
125.737
 21
-141.758
  0
LINE
  8
0
 10
125.737
 20
-141.758
 11
127.36
 21
-142.239
  0
LINE
  8
0
 10
127.36
 20
-142.239
 11
128.974
 21
-142.748
  0
LINE
  8
0
 10
128.974
 20
-142.748
 11
130.58
 21
-143.285
  0
LINE
  8
0
 10
130.58
 20
-143.285
 11
132.176
 21
-143.85
  0
LINE
  8
0
 10
132.176
 20
-143.85
 11
133.762
 21
-144.443
  0
LINE
  8
0
 10
133.762
 20
-144.443
 11
135.336
 21
-145.063
  0
LINE
  8
0
 10
135.336
 20
-145.063
 11
136.901
 21
-145.711
  0
LINE
  8
0
 10
136.901
 20
-145.711
 11
138.453
 21
-146.386
  0
LINE
  8
0
 10
138.453
 20
-146.386
 11
139.994
 21
-147.088
  0
LINE
  8
0
 10
139.994
 20
-147.088
 11
141.522
 21
-147.818
  0
LINE
  8
0
 10
141.522
 20
-147.818
 11
143.036
 21
-148.572
  0
LINE
  8
0
 10
143.036
 20
-148.572
 11
144.539
 21
-149.355
  0
LINE
  8
0
 10
144.539
 20
-149.355
 11
146.026
 21
-150.162
  0
LINE
  8
0
 10
146.026
 20
-150.162
 11
147.5
 21
-150.996
  0
LINE
  8
0
 10
147.5
 20
-150.996
 11
148.32
 21
-151.479
  0
LINE
  8
0
 10
148.32
 20
-151.479
 11
151.179
 21
-152.614
  0
LINE
  8
0
 10
151.179
 20
-152.614
 11
151.784
 21
-152.751
  0
LINE
  8
0
 10
151.784
 20
-152.751
 11
153.86
 21
-152.999
  0
LINE
  8
0
 10
153.86
 20
-152.999
 11
155.942
 21
-152.81
  0
LINE
  8
0
 10
64.9044
 20
-16.4184
 11
63.9296
 21
-14.9015
  0
LINE
  8
0
 10
63.9296
 20
-14.9015
 11
63.9296
 21
-13.0984
  0
LINE
  8
0
 10
63.9296
 20
-13.0984
 11
64.9044
 21
-11.5816
  0
LINE
  8
0
 10
64.9044
 20
-11.5816
 11
66.5446
 21
-10.8326
  0
LINE
  8
0
 10
66.5446
 20
-10.8326
 11
68.3293
 21
-11.0892
  0
LINE
  8
0
 10
68.3293
 20
-11.0892
 11
69.692
 21
-12.2699
  0
LINE
  8
0
 10
69.692
 20
-12.2699
 11
70.2
 21
-14
  0
LINE
  8
0
 10
70.2
 20
-14
 11
69.692
 21
-15.73
  0
LINE
  8
0
 10
69.692
 20
-15.73
 11
68.3293
 21
-16.9108
  0
LINE
  8
0
 10
68.3293
 20
-16.9108
 11
66.5446
 21
-17.1674
  0
LINE
  8
0
 10
66.5446
 20
-17.1674
 11
64.9044
 21
-16.4184
  0
LINE
  8
0
 10
129.904
 20
-21.4184
 11
128.93
 21
-19.9015
  0
LINE
  8
0
 10
128.93
 20
-19.9015
 11
128.93
 21
-18.0984
  0
LINE
  8
0
 10
128.93
 20
-18.0984
 11
129.904
 21
-16.5816
  0
LINE
  8
0
 10
129.904
 20
-16.5816
 11
131.545
 21
-15.8326
  0
LINE
  8
0
 10
131.545
 20
-15.8326
 11
133.329
 21
-16.0892
  0
LINE
  8
0
 10
133.329
 20
-16.0892
 11
134.692
 21
-17.2699
  0
LINE
  8
0
 10
134.692
 20
-17.2699
 11
135.2
 21
-19
  0
LINE
  8
0
 10
135.2
 20
-19
 11
134.692
 21
-20.73
  0
LINE
  8
0
 10
134.692
 20
-20.73
 11
133.329
 21
-21.9108
  0
LINE
  8
0
 10
133.329
 20
-21.9108
 11
131.545
 21
-22.1674
  0
LINE
  8
0
 10
131.545
 20
-22.1674
 11
129.904
 21
-21.4184
  0
LINE
  8
0
 10
80
 20
-38
 11
80
 21
-24
  0
LINE
  8
0
 10
80
 20
-24
 11
94
 21
-24
  0
LINE
  8
0
 10
94
 20
-24
 11
94
 21
-38
  0
LINE
  8
0
 10
94
 20
-38
 11
80
 21
-38
  0
LINE
  8
0
 10
61
 20
-42
 11
61
 21
-28
  0
LINE
  8
0
 10
61
 20
-28
 11
75
 21
-28
  0
LINE
  8
0
 10
75
 20
-28
 11
75
 21
-42
  0
LINE
  8
0
 10
75
 20
-42
 11
61
 21
-42
  0
LINE
  8
0
 10
99
 20
-46
 11
99
 21
-32
  0
LINE
  8
0
 10
99
 20
-32
 11
113
 21
-32
  0
LINE
  8
0
 10
113
 20
-32
 11
113
 21
-46
  0
LINE
  8
0
 10
113
 20
-46
 11
99
 21
-46
  0
LINE
  8
0
 10
118
 20
-48
 11
118
 21
-34
  0
LINE
  8
0
 10
118
 20
-34
 11
132
 21
-34
  0
LINE
  8
0
 10
132
 20
-34
 11
132
 21
-48
  0
LINE
  8
0
 10
132
 20
-48
 11
118
 21
-48
  0
LINE
  8
0
 10
42
 20
-56
 11
42
 21
-42
  0
LINE
  8
0
 10
42
 20
-42
 11
56
 21
-42
  0
LINE
  8
0
 10
56
 20
-42
 11
56
 21
-56
  0
LINE
  8
0
 10
56
 20
-56
 11
42
 21
-56
  0
LINE
  8
0
 10
80
 20
-57
 11
80
 21
-43
  0
LINE
  8
0
 10
80
 20
-43
 11
94
 21
-43
  0
LINE
  8
0
 10
94
 20
-43
 11
94
 21
-57
  0
LINE
  8
0
 10
94
 20
-57
 11
80
 21
-57
  0
LINE
  8
0
 10
23
 20
-59
 11
23
 21
-45
  0
LINE
  8
0
 10
23
 20
-45
 11
37
 21
-45
  0
LINE
  8
0
 10
37
 20
-45
 11
37
 21
-59
  0
LINE
  8
0
 10
37
 20
-59
 11
23
 21
-59
  0
LINE
  8
0
 10
61
 20
-61
 11
61
 21
-47
  0
LINE
  8
0
 10
61
 20
-47
 11
75
 21
-47
  0
LINE
  8
0
 10
75
 20
-47
 11
75
 21
-61
  0
LINE
  8
0
 10
75
 20
-61
 11
61
 21
-61
  0
LINE
  8
0
 10
99
 20
-65
 11
99
 21
-51
  0
LINE
  8
0
 10
99
 20
-51
 11
113
 21
-51
  0
LINE
  8
0
 10
113
 20
-51
 11
113
 21
-65
  0
LINE
  8
0
 10
113
 20
-65
 11
99
 21
-65
  0
LINE
  8
0
 10
118
 20
-67
 11
118
 21
-53
  0
LINE
  8
0
 10
118
 20
-53
 11
132
 21
-53
  0
LINE
  8
0
 10
132
 20
-53
 11
132
 21
-67
  0
LINE
  8
0
 10
132
 20
-67
 11
118
 21
-67
  0
LINE
  8
0
 10
42
 20
-75
 11
42
 21
-61
  0
LINE
  8
0
 10
42
 20
-61
 11
56
 21
-61
  0
LINE
  8
0
 10
56
 20
-61
 11
56
 21
-75
  0
LINE
  8
0
 10
56
 20
-75
 11
42
 21
-75
  0
LINE
  8
0
 10
80
 20
-76
 11
80
 21
-62
  0
LINE
  8
0
 10
80
 20
-62
 11
94
 21
-62
  0
LINE
  8
0
 10
94
 20
-62
 11
94
 21
-76
  0
LINE
  8
0
 10
94
 20
-76
 11
80
 21
-76
  0
LINE
  8
0
 10
23
 20
-78
 11
23
 21
-64
  0
LINE
  8
0
 10
23
 20
-64
 11
37
 21
-64
  0
LINE
  8
0
 10
37
 20
-64
 11
37
 21
-78
  0
LINE
  8
0
 10
37
 20
-78
 11
23
 21
-78
  0
LINE
  8
0
 10
61
 20
-80
 11
61
 21
-66
  0
LINE
  8
0
 10
61
 20
-66
 11
75
 21
-66
  0
LINE
  8
0
 10
75
 20
-66
 11
75
 21
-80
  0
LINE
  8
0
 10
75
 20
-80
 11
61
 21
-80
  0
LINE
  8
0
 10
99
 20
-84
 11
99
 21
-70
  0
LINE
  8
0
 10
99
 20
-70
 11
113
 21
-70
  0
LINE
  8
0
 10
113
 20
-70
 11
113
 21
-84
  0
LINE
  8
0
 10
113
 20
-84
 11
99
 21
-84
  0
LINE
  8
0
 10
118
 20
-86
 11
118
 21
-72
  0
LINE
  8
0
 10
118
 20
-72
 11
132
 21
-72
  0
LINE
  8
0
 10
132
 20
-72
 11
132
 21
-86
  0
LINE
  8
0
 10
132
 20
-86
 11
118
 21
-86
  0
LINE
  8
0
 10
10.9044
 20
-82.4184
 11
9.92961
 21
-80.9015
  0
LINE
  8
0
 10
9.92961
 20
-80.9015
 11
9.92961
 21
-79.0984
  0
LINE
  8
0
 10
9.92961
 20
-79.0984
 11
10.9044
 21
-77.5816
  0
LINE
  8
0
 10
10.9044
 20
-77.5816
 11
12.5446
 21
-76.8326
  0
LINE
  8
0
 10
12.5446
 20
-76.8326
 11
14.3293
 21
-77.0892
  0
LINE
  8
0
 10
14.3293
 20
-77.0892
 11
15.692
 21
-78.2699
  0
LINE
  8
0
 10
15.692
 20
-78.2699
 11
16.2
 21
-80
  0
LINE
  8
0
 10
16.2
 20
-80
 11
15.692
 21
-81.73
  0
LINE
  8
0
 10
15.692
 20
-81.73
 11
14.3293
 21
-82.9108
  0
LINE
  8
0
 10
14.3293
 20
-82.9108
 11
12.5446
 21
-83.1674
  0
LINE
  8
0
 10
12.5446
 20
-83.1674
 11
10.9044
 21
-82.4184
  0
LINE
  8
0
 10
42
 20
-94
 11
42
 21
-80
  0
LINE
  8
0
 10
42
 20
-80
 11
56
 21
-80
  0
LINE
  8
0
 10
56
 20
-80
 11
56
 21
-94
  0
LINE
  8
0
 10
56
 20
-94
 11
42
 21
-94
  0
LINE
  8
0
 10
80
 20
-95
 11
80
 21
-81
  0
LINE
  8
0
 10
80
 20
-81
 11
94
 21
-81
  0
LINE
  8
0
 10
94
 20
-81
 11
94
 21
-95
  0
LINE
  8
0
 10
94
 20
-95
 11
80
 21
-95
  0
LINE
  8
0
 10
23
 20
-97
 11
23
 21
-83
  0
LINE
  8
0
 10
23
 20
-83
 11
37
 21
-83
  0
LINE
  8
0
 10
37
 20
-83
 11
37
 21
-97
  0
LINE
  8
0
 10
37
 20
-97
 11
23
 21
-97
  0
LINE
  8
0
 10
61
 20
-99
 11
61
 21
-85
  0
LINE
  8
0
 10
61
 20
-85
 11
75
 21
-85
  0
LINE
  8
0
 10
75
 20
-85
 11
75
 21
-99
  0
LINE
  8
0
 10
75
 20
-99
 11
61
 21
-99
  0
LINE
  8
0
 10
99
 20
-103
 11
99
 21
-89
  0
LINE
  8
0
 10
99
 20
-89
 11
113
 21
-89
  0
LINE
  8
0
 10
113
 20
-89
 11
113
 21
-103
  0
LINE
  8
0
 10
113
 20
-103
 11
99
 21
-103
  0
LINE
  8
0
 10
118
 20
-105
 11
118
 21
-91
  0
LINE
  8
0
 10
118
 20
-91
 11
132
 21
-91
  0
LINE
  8
0
 10
132
 20
-91
 11
132
 21
-105
  0
LINE
  8
0
 10
132
 20
-105
 11
118
 21
-105
  0
LINE
  8
0
 10
42
 20
-113
 11
42
 21
-99
  0
LINE
  8
0
 10
42
 20
-99
 11
56
 21
-99
  0
LINE
  8
0
 10
56
 20
-99
 11
56
 21
-113
  0
LINE
  8
0
 10
56
 20
-113
 11
42
 21
-113
  0
LINE
  8
0
 10
23
 20
-116
 11
23
 21
-102
  0
LINE
  8
0
 10
23
 20
-102
 11
37
 21
-102
  0
LINE
  8
0
 10
37
 20
-102
 11
37
 21
-116
  0
LINE
  8
0
 10
37
 20
-116
 11
23
 21
-116
  0
LINE
  8
0
 10
102
 20
-124
 11
102
 21
-110
  0
LINE
  8
0
 10
102
 20
-110
 11
116
 21
-110
  0
LINE
  8
0
 10
116
 20
-110
 11
116
 21
-124
  0
LINE
  8
0
 10
116
 20
-124
 11
102
 21
-124
  0
LINE
  8
0
 10
121.627
 20
-124.75
 11
125.25
 21
-111.227
  0
LINE
  8
0
 10
125.25
 20
-111.227
 11
138.773
 21
-114.85
  0
LINE
  8
0
 10
138.773
 20
-114.85
 11
135.15
 21
-128.373
  0
LINE
  8
0
 10
135.15
 20
-128.373
 11
121.627
 21
-124.75
  0
LINE
  8
0
 10
140.438
 20
-130.562
 11
147.438
 21
-118.438
  0
LINE
  8
0
 10
147.438
 20
-118.438
 11
159.562
 21
-125.438
  0
LINE
  8
0
 10
159.562
 20
-125.438
 11
152.562
 21
-137.562
  0
LINE
  8
0
 10
152.562
 20
-137.562
 11
140.438
 21
-130.562
  0
ENDSEC
  0
SECTION
  2
OBJECTS
  0
DICTIONARY
  0
ENDSEC
  0
EOF
