  0
SECTION
  2
BLOCKS
  0
ENDSEC
  0
SECTION
  2
ENTITIES
  0
LINE
  8
0
 10
155.088
 20
-152.321
 11
155.536
 21
-152.301
  0
LINE
  8
0
 10
155.536
 20
-152.301
 11
155.762
 21
-152.243
  0
LINE
  8
0
 10
155.762
 20
-152.243
 11
156.117
 21
-152.201
  0
LINE
  8
0
 10
156.117
 20
-152.201
 11
156.237
 21
-152.173
  0
LINE
  8
0
 10
156.237
 20
-152.173
 11
156.235
 21
-152.166
  0
LINE
  8
0
 10
156.235
 20
-152.166
 11
156.283
 21
-152.162
  0
LINE
  8
0
 10
156.283
 20
-152.162
 11
156.283
 21
-152.162
  0
LINE
  8
0
 10
156.283
 20
-152.162
 11
156.285
 21
-152.162
  0
LINE
  8
0
 10
156.285
 20
-152.162
 11
156.368
 21
-152.154
  0
LINE
  8
0
 10
156.368
 20
-152.154
 11
156.372
 21
-152.153
  0
LINE
  8
0
 10
156.372
 20
-152.153
 11
156.811
 21
-151.978
  0
LINE
  8
0
 10
156.811
 20
-151.978
 11
156.882
 21
-151.952
  0
LINE
  8
0
 10
156.882
 20
-151.952
 11
157.56
 21
-151.776
  0
LINE
  8
0
 10
157.56
 20
-151.776
 11
158.508
 21
-151.363
  0
LINE
  8
0
 10
158.508
 20
-151.363
 11
158.515
 21
-151.36
  0
LINE
  8
0
 10
158.515
 20
-151.36
 11
158.517
 21
-151.359
  0
LINE
  8
0
 10
158.517
 20
-151.359
 11
158.519
 21
-151.358
  0
LINE
  8
0
 10
158.519
 20
-151.358
 11
158.523
 21
-151.356
  0
LINE
  8
0
 10
158.523
 20
-151.356
 11
158.525
 21
-151.355
  0
LINE
  8
0
 10
158.525
 20
-151.355
 11
158.829
 21
-151.172
  0
LINE
  8
0
 10
158.829
 20
-151.172
 11
158.875
 21
-151.153
  0
LINE
  8
0
 10
158.875
 20
-151.153
 11
158.914
 21
-151.131
  0
LINE
  8
0
 10
158.914
 20
-151.131
 11
158.91
 21
-151.122
  0
LINE
  8
0
 10
158.91
 20
-151.122
 11
158.954
 21
-151.096
  0
LINE
  8
0
 10
158.954
 20
-151.096
 11
158.959
 21
-151.105
  0
LINE
  8
0
 10
158.959
 20
-151.105
 11
158.965
 21
-151.102
  0
LINE
  8
0
 10
158.965
 20
-151.102
 11
158.959
 21
-151.093
  0
LINE
  8
0
 10
158.959
 20
-151.093
 11
159.073
 21
-151.023
  0
LINE
  8
0
 10
159.073
 20
-151.023
 11
159.081
 21
-151.037
  0
LINE
  8
0
 10
159.081
 20
-151.037
 11
159.081
 21
-151.036
  0
LINE
  8
0
 10
159.081
 20
-151.036
 11
159.195
 21
-150.95
  0
LINE
  8
0
 10
159.195
 20
-150.95
 11
159.901
 21
-150.523
  0
LINE
  8
0
 10
159.901
 20
-150.523
 11
160.028
 21
-150.431
  0
LINE
  8
0
 10
160.028
 20
-150.431
 11
160.202
 21
-150.283
  0
LINE
  8
0
 10
160.202
 20
-150.283
 11
160.279
 21
-150.234
  0
LINE
  8
0
 10
160.279
 20
-150.234
 11
160.4
 21
-150.114
  0
LINE
  8
0
 10
160.4
 20
-150.114
 11
160.782
 21
-149.789
  0
LINE
  8
0
 10
160.782
 20
-149.789
 11
160.793
 21
-149.801
  0
LINE
  8
0
 10
160.793
 20
-149.801
 11
160.868
 21
-149.734
  0
LINE
  8
0
 10
160.868
 20
-149.734
 11
160.928
 21
-149.666
  0
LINE
  8
0
 10
160.928
 20
-149.666
 11
161.254
 21
-149.388
  0
LINE
  8
0
 10
161.254
 20
-149.388
 11
161.256
 21
-149.387
  0
LINE
  8
0
 10
161.256
 20
-149.387
 11
161.714
 21
-148.821
  0
LINE
  8
0
 10
161.714
 20
-148.821
 11
161.768
 21
-148.767
  0
LINE
  8
0
 10
161.768
 20
-148.767
 11
161.817
 21
-148.693
  0
LINE
  8
0
 10
161.817
 20
-148.693
 11
162.332
 21
-148.057
  0
LINE
  8
0
 10
162.332
 20
-148.057
 11
162.57
 21
-147.785
  0
LINE
  8
0
 10
162.57
 20
-147.785
 11
162.571
 21
-147.782
  0
LINE
  8
0
 10
162.571
 20
-147.782
 11
162.747
 21
-147.51
  0
LINE
  8
0
 10
162.747
 20
-147.51
 11
162.764
 21
-147.482
  0
LINE
  8
0
 10
162.764
 20
-147.482
 11
162.933
 21
-147.2
  0
LINE
  8
0
 10
162.933
 20
-147.2
 11
162.936
 21
-147.194
  0
LINE
  8
0
 10
162.936
 20
-147.194
 11
163.059
 21
-147.244
  0
LINE
  8
0
 10
163.059
 20
-147.244
 11
165
 21
-147.5
  0
LINE
  8
0
 10
165
 20
-147.5
 11
166.941
 21
-147.244
  0
LINE
  8
0
 10
166.941
 20
-147.244
 11
168.75
 21
-146.495
  0
LINE
  8
0
 10
168.75
 20
-146.495
 11
170.303
 21
-145.303
  0
LINE
  8
0
 10
170.303
 20
-145.303
 11
171.495
 21
-143.75
  0
LINE
  8
0
 10
171.495
 20
-143.75
 11
172.244
 21
-141.941
  0
LINE
  8
0
 10
172.244
 20
-141.941
 11
172.5
 21
-140
  0
LINE
  8
0
 10
172.5
 20
-140
 11
172.244
 21
-138.059
  0
LINE
  8
0
 10
172.244
 20
-138.059
 11
171.495
 21
-136.25
  0
LINE
  8
0
 10
171.495
 20
-136.25
 11
170.303
 21
-134.697
  0
LINE
  8
0
 10
170.303
 20
-134.697
 11
170.188
 21
-134.608
  0
LINE
  8
0
 10
170.188
 20
-134.608
 11
172.119
 21
-131.256
  0
LINE
  8
0
 10
172.119
 20
-131.256
 11
172.264
 21
-130.996
  0
LINE
  8
0
 10
172.264
 20
-130.996
 11
172.278
 21
-130.97
  0
LINE
  8
0
 10
172.278
 20
-130.97
 11
172.413
 21
-130.709
  0
LINE
  8
0
 10
172.413
 20
-130.709
 11
172.416
 21
-130.704
  0
LINE
  8
0
 10
172.416
 20
-130.704
 11
172.995
 21
-129.106
  0
LINE
  8
0
 10
172.995
 20
-129.106
 11
173.205
 21
-128.525
  0
LINE
  8
0
 10
173.205
 20
-128.525
 11
173.258
 21
-128.301
  0
LINE
  8
0
 10
173.258
 20
-128.301
 11
173.525
 21
-126.004
  0
LINE
  8
0
 10
173.525
 20
-126.004
 11
173.525
 21
-87
  0
LINE
  8
0
 10
173.525
 20
-87
 11
148
 21
-87
  0
LINE
  8
0
 10
148
 20
-87
 11
148
 21
-73
  0
LINE
  8
0
 10
148
 20
-73
 11
173.525
 21
-73
  0
LINE
  8
0
 10
173.525
 20
-73
 11
173.525
 21
-57.4308
  0
LINE
  8
0
 10
173.525
 20
-57.4308
 11
174.941
 21
-57.2444
  0
LINE
  8
0
 10
174.941
 20
-57.2444
 11
176.75
 21
-56.4952
  0
LINE
  8
0
 10
176.75
 20
-56.4952
 11
178.303
 21
-55.3033
  0
LINE
  8
0
 10
178.303
 20
-55.3033
 11
179.495
 21
-53.75
  0
LINE
  8
0
 10
179.495
 20
-53.75
 11
180.244
 21
-51.9411
  0
LINE
  8
0
 10
180.244
 20
-51.9411
 11
180.5
 21
-50
  0
LINE
  8
0
 10
180.5
 20
-50
 11
180.244
 21
-48.0589
  0
LINE
  8
0
 10
180.244
 20
-48.0589
 11
179.495
 21
-46.25
  0
LINE
  8
0
 10
179.495
 20
-46.25
 11
178.303
 21
-44.6967
  0
LINE
  8
0
 10
178.303
 20
-44.6967
 11
176.75
 21
-43.5048
  0
LINE
  8
0
 10
176.75
 20
-43.5048
 11
174.941
 21
-42.7556
  0
LINE
  8
0
 10
174.941
 20
-42.7556
 11
173.525
 21
-42.5692
  0
LINE
  8
0
 10
173.525
 20
-42.5692
 11
173.525
 21
-34.4766
  0
LINE
  8
0
 10
173.525
 20
-34.4766
 11
173.511
 21
-33.949
  0
LINE
  8
0
 10
173.511
 20
-33.949
 11
173.509
 21
-33.8964
  0
LINE
  8
0
 10
173.509
 20
-33.8964
 11
173.467
 21
-33.3728
  0
LINE
  8
0
 10
173.467
 20
-33.3728
 11
173.406
 21
-32.7908
  0
LINE
  8
0
 10
173.406
 20
-32.7908
 11
173.32
 21
-32.2598
  0
LINE
  8
0
 10
173.32
 20
-32.2598
 11
173.33
 21
-32.2584
  0
LINE
  8
0
 10
173.33
 20
-32.2584
 11
173.327
 21
-32.2412
  0
LINE
  8
0
 10
173.327
 20
-32.2412
 11
173.294
 21
-32.0976
  0
LINE
  8
0
 10
173.294
 20
-32.0976
 11
173.234
 21
-31.7226
  0
LINE
  8
0
 10
173.234
 20
-31.7226
 11
173.216
 21
-31.6392
  0
LINE
  8
0
 10
173.216
 20
-31.6392
 11
173.19
 21
-31.6448
  0
LINE
  8
0
 10
173.19
 20
-31.6448
 11
172.99
 21
-30.7747
  0
LINE
  8
0
 10
172.99
 20
-30.7747
 11
172.816
 21
-30.2151
  0
LINE
  8
0
 10
172.816
 20
-30.2151
 11
172.781
 21
-30.133
  0
LINE
  8
0
 10
172.781
 20
-30.133
 11
172.75
 21
-30.0077
  0
LINE
  8
0
 10
172.75
 20
-30.0077
 11
172.749
 21
-30.0048
  0
LINE
  8
0
 10
172.749
 20
-30.0048
 11
172.436
 21
-29.1863
  0
LINE
  8
0
 10
172.436
 20
-29.1863
 11
172.401
 21
-29.1059
  0
LINE
  8
0
 10
172.401
 20
-29.1059
 11
172.017
 21
-28.3169
  0
LINE
  8
0
 10
172.017
 20
-28.3169
 11
171.737
 21
-27.8022
  0
LINE
  8
0
 10
171.737
 20
-27.8022
 11
171.019
 21
-26.7559
  0
LINE
  8
0
 10
171.019
 20
-26.7559
 11
171.059
 21
-26.7265
  0
LINE
  8
0
 10
171.059
 20
-26.7265
 11
171
 21
-26.6447
  0
LINE
  8
0
 10
171
 20
-26.6447
 11
170.961
 21
-26.6727
  0
LINE
  8
0
 10
170.961
 20
-26.6727
 11
170.716
 21
-26.3161
  0
LINE
  8
0
 10
170.716
 20
-26.3161
 11
170.598
 21
-26.1158
  0
LINE
  8
0
 10
170.598
 20
-26.1158
 11
170.225
 21
-25.6646
  0
LINE
  8
0
 10
170.225
 20
-25.6646
 11
169.97
 21
-25.4144
  0
LINE
  8
0
 10
169.97
 20
-25.4144
 11
169.556
 21
-24.9289
  0
LINE
  8
0
 10
169.556
 20
-24.9289
 11
169.555
 21
-24.9269
  0
LINE
  8
0
 10
169.555
 20
-24.9269
 11
169.188
 21
-24.5782
  0
LINE
  8
0
 10
169.188
 20
-24.5782
 11
169.15
 21
-24.5442
  0
LINE
  8
0
 10
169.15
 20
-24.5442
 11
168.764
 21
-24.2125
  0
LINE
  8
0
 10
168.764
 20
-24.2125
 11
168.31
 21
-23.8424
  0
LINE
  8
0
 10
168.31
 20
-23.8424
 11
167.42
 21
-23.1953
  0
LINE
  8
0
 10
167.42
 20
-23.1953
 11
167.335
 21
-23.1404
  0
LINE
  8
0
 10
167.335
 20
-23.1404
 11
167.285
 21
-23.2178
  0
LINE
  8
0
 10
167.285
 20
-23.2178
 11
166.611
 21
-22.7138
  0
LINE
  8
0
 10
166.611
 20
-22.7138
 11
166.095
 21
-22.4384
  0
LINE
  8
0
 10
166.095
 20
-22.4384
 11
165.979
 21
-22.3777
  0
LINE
  8
0
 10
165.979
 20
-22.3777
 11
165.967
 21
-22.3717
  0
LINE
  8
0
 10
165.967
 20
-22.3717
 11
165.849
 21
-22.3116
  0
LINE
  8
0
 10
165.849
 20
-22.3116
 11
165.202
 21
-22.0165
  0
LINE
  8
0
 10
165.202
 20
-22.0165
 11
165.137
 21
-21.9894
  0
LINE
  8
0
 10
165.137
 20
-21.9894
 11
164.474
 21
-21.742
  0
LINE
  8
0
 10
164.474
 20
-21.742
 11
164.338
 21
-21.6977
  0
LINE
  8
0
 10
164.338
 20
-21.6977
 11
164.324
 21
-21.6933
  0
LINE
  8
0
 10
164.324
 20
-21.6933
 11
164.18
 21
-21.6488
  0
LINE
  8
0
 10
164.18
 20
-21.6488
 11
163.62
 21
-21.4799
  0
LINE
  8
0
 10
163.62
 20
-21.4799
 11
162.791
 21
-21.2949
  0
LINE
  8
0
 10
162.791
 20
-21.2949
 11
162.796
 21
-21.2709
  0
LINE
  8
0
 10
162.796
 20
-21.2709
 11
162.719
 21
-21.2545
  0
LINE
  8
0
 10
162.719
 20
-21.2545
 11
162.361
 21
-21.1987
  0
LINE
  8
0
 10
162.361
 20
-21.1987
 11
162.195
 21
-21.1618
  0
LINE
  8
0
 10
162.195
 20
-21.1618
 11
162.172
 21
-21.1584
  0
LINE
  8
0
 10
162.172
 20
-21.1584
 11
162.171
 21
-21.1692
  0
LINE
  8
0
 10
162.171
 20
-21.1692
 11
161.616
 21
-21.083
  0
LINE
  8
0
 10
161.616
 20
-21.083
 11
161.032
 21
-21.0253
  0
LINE
  8
0
 10
161.032
 20
-21.0253
 11
160.541
 21
-20.9891
  0
LINE
  8
0
 10
160.541
 20
-20.9891
 11
160.492
 21
-20.9866
  0
LINE
  8
0
 10
160.492
 20
-20.9866
 11
160.001
 21
-20.9746
  0
LINE
  8
0
 10
160.001
 20
-20.9746
 11
160
 21
-20.9746
  0
LINE
  8
0
 10
160
 20
-20.9746
 11
160
 21
-66
  0
LINE
  8
0
 10
160
 20
-66
 11
140
 21
-66
  0
LINE
  8
0
 10
140
 20
-66
 11
140
 21
-17.3713
  0
LINE
  8
0
 10
140
 20
-17.3713
 11
139.022
 21
-17.0793
  0
LINE
  8
0
 10
139.022
 20
-17.0793
 11
138.895
 21
-17.0423
  0
LINE
  8
0
 10
138.895
 20
-17.0423
 11
138.882
 21
-17.0387
  0
LINE
  8
0
 10
138.882
 20
-17.0387
 11
138.759
 21
-17.0045
  0
LINE
  8
0
 10
138.759
 20
-17.0045
 11
134.251
 21
-15.7858
  0
LINE
  8
0
 10
134.251
 20
-15.7858
 11
134.117
 21
-15.7506
  0
LINE
  8
0
 10
134.117
 20
-15.7506
 11
133.495
 21
-14.25
  0
LINE
  8
0
 10
133.495
 20
-14.25
 11
132.303
 21
-12.6967
  0
LINE
  8
0
 10
132.303
 20
-12.6967
 11
130.75
 21
-11.5048
  0
LINE
  8
0
 10
130.75
 20
-11.5048
 11
128.941
 21
-10.7556
  0
LINE
  8
0
 10
128.941
 20
-10.7556
 11
127
 21
-10.5
  0
LINE
  8
0
 10
127
 20
-10.5
 11
125.059
 21
-10.7556
  0
LINE
  8
0
 10
125.059
 20
-10.7556
 11
123.25
 21
-11.5048
  0
LINE
  8
0
 10
123.25
 20
-11.5048
 11
121.697
 21
-12.6967
  0
LINE
  8
0
 10
121.697
 20
-12.6967
 11
121.395
 21
-13.0904
  0
LINE
  8
0
 10
121.395
 20
-13.0904
 11
119.562
 21
-12.7767
  0
LINE
  8
0
 10
119.562
 20
-12.7767
 11
119.405
 21
-12.7509
  0
LINE
  8
0
 10
119.405
 20
-12.7509
 11
119.389
 21
-12.7485
  0
LINE
  8
0
 10
119.389
 20
-12.7485
 11
119.237
 21
-12.7262
  0
LINE
  8
0
 10
119.237
 20
-12.7262
 11
114.613
 21
-12.0827
  0
LINE
  8
0
 10
114.613
 20
-12.0827
 11
114.459
 21
-12.0623
  0
LINE
  8
0
 10
114.459
 20
-12.0623
 11
114.443
 21
-12.0604
  0
LINE
  8
0
 10
114.443
 20
-12.0604
 11
114.286
 21
-12.0423
  0
LINE
  8
0
 10
114.286
 20
-12.0423
 11
109.643
 21
-11.5443
  0
LINE
  8
0
 10
109.643
 20
-11.5443
 11
109.487
 21
-11.5288
  0
LINE
  8
0
 10
109.487
 20
-11.5288
 11
109.472
 21
-11.5273
  0
LINE
  8
0
 10
109.472
 20
-11.5273
 11
109.314
 21
-11.5142
  0
LINE
  8
0
 10
109.314
 20
-11.5142
 11
104.658
 21
-11.1626
  0
LINE
  8
0
 10
104.658
 20
-11.1626
 11
104.497
 21
-11.1518
  0
LINE
  8
0
 10
104.497
 20
-11.1518
 11
104.481
 21
-11.1509
  0
LINE
  8
0
 10
104.481
 20
-11.1509
 11
104.328
 21
-11.1429
  0
LINE
  8
0
 10
104.328
 20
-11.1429
 11
99.6633
 21
-10.9379
  0
LINE
  8
0
 10
99.6633
 20
-10.9379
 11
99.5061
 21
-10.9322
  0
LINE
  8
0
 10
99.5061
 20
-10.9322
 11
99.4904
 21
-10.9318
  0
LINE
  8
0
 10
99.4904
 20
-10.9318
 11
99.3339
 21
-10.9286
  0
LINE
  8
0
 10
99.3339
 20
-10.9286
 11
94.665
 21
-10.87
  0
LINE
  8
0
 10
94.665
 20
-10.87
 11
94.5103
 21
-10.8692
  0
LINE
  8
0
 10
94.5103
 20
-10.8692
 11
94.4946
 21
-10.8693
  0
LINE
  8
0
 10
94.4946
 20
-10.8693
 11
94.3355
 21
-10.871
  0
LINE
  8
0
 10
94.3355
 20
-10.871
 11
89.6676
 21
-10.9589
  0
LINE
  8
0
 10
89.6676
 20
-10.9589
 11
89.5155
 21
-10.9629
  0
LINE
  8
0
 10
89.5155
 20
-10.9629
 11
89.4999
 21
-10.9635
  0
LINE
  8
0
 10
89.4999
 20
-10.9635
 11
89.3382
 21
-10.9703
  0
LINE
  8
0
 10
89.3382
 20
-10.9703
 11
84.6751
 21
-11.2046
  0
LINE
  8
0
 10
84.6751
 20
-11.2046
 11
84.5164
 21
-11.2139
  0
LINE
  8
0
 10
84.5164
 20
-11.2139
 11
84.5007
 21
-11.2149
  0
LINE
  8
0
 10
84.5007
 20
-11.2149
 11
84.3458
 21
-11.2264
  0
LINE
  8
0
 10
84.3458
 20
-11.2264
 11
79.6915
 21
-11.6072
  0
LINE
  8
0
 10
79.6915
 20
-11.6072
 11
79.5302
 21
-11.6217
  0
LINE
  8
0
 10
79.5302
 20
-11.6217
 11
79.5145
 21
-11.6233
  0
LINE
  8
0
 10
79.5145
 20
-11.6233
 11
79.362
 21
-11.6395
  0
LINE
  8
0
 10
79.362
 20
-11.6395
 11
74.7224
 21
-12.1668
  0
LINE
  8
0
 10
74.7224
 20
-12.1668
 11
74.5717
 21
-12.1851
  0
LINE
  8
0
 10
74.5717
 20
-12.1851
 11
74.5562
 21
-12.1871
  0
LINE
  8
0
 10
74.5562
 20
-12.1871
 11
74.3971
 21
-12.2089
  0
LINE
  8
0
 10
74.3971
 20
-12.2089
 11
69.777
 21
-12.8808
  0
LINE
  8
0
 10
69.777
 20
-12.8808
 11
69.6208
 21
-12.9048
  0
LINE
  8
0
 10
69.6208
 20
-12.9048
 11
69.6052
 21
-12.9073
  0
LINE
  8
0
 10
69.6052
 20
-12.9073
 11
69.4498
 21
-12.9337
  0
LINE
  8
0
 10
69.4498
 20
-12.9337
 11
64.8531
 21
-13.751
  0
LINE
  8
0
 10
64.8531
 20
-13.751
 11
64.7027
 21
-13.779
  0
LINE
  8
0
 10
64.7027
 20
-13.779
 11
64.6874
 21
-13.7819
  0
LINE
  8
0
 10
64.6874
 20
-13.7819
 11
64.5305
 21
-13.8136
  0
LINE
  8
0
 10
64.5305
 20
-13.8136
 11
59.9612
 21
-14.7746
  0
LINE
  8
0
 10
59.9612
 20
-14.7746
 11
59.8017
 21
-14.8095
  0
LINE
  8
0
 10
59.8017
 20
-14.8095
 11
59.7863
 21
-14.813
  0
LINE
  8
0
 10
59.7863
 20
-14.813
 11
59.6385
 21
-14.8477
  0
LINE
  8
0
 10
59.6385
 20
-14.8477
 11
55.1014
 21
-15.9522
  0
LINE
  8
0
 10
55.1014
 20
-15.9522
 11
54.9544
 21
-15.9892
  0
LINE
  8
0
 10
54.9544
 20
-15.9892
 11
54.9392
 21
-15.9932
  0
LINE
  8
0
 10
54.9392
 20
-15.9932
 11
54.7829
 21
-16.0351
  0
LINE
  8
0
 10
54.7829
 20
-16.0351
 11
51.7536
 21
-16.8739
  0
LINE
  8
0
 10
51.7536
 20
-16.8739
 11
51.4952
 21
-16.25
  0
LINE
  8
0
 10
51.4952
 20
-16.25
 11
50.3033
 21
-14.6967
  0
LINE
  8
0
 10
50.3033
 20
-14.6967
 11
48.75
 21
-13.5048
  0
LINE
  8
0
 10
48.75
 20
-13.5048
 11
46.9411
 21
-12.7556
  0
LINE
  8
0
 10
46.9411
 20
-12.7556
 11
45
 21
-12.5
  0
LINE
  8
0
 10
45
 20
-12.5
 11
43.0589
 21
-12.7556
  0
LINE
  8
0
 10
43.0589
 20
-12.7556
 11
41.25
 21
-13.5048
  0
LINE
  8
0
 10
41.25
 20
-13.5048
 11
39.6967
 21
-14.6967
  0
LINE
  8
0
 10
39.6967
 20
-14.6967
 11
38.5048
 21
-16.25
  0
LINE
  8
0
 10
38.5048
 20
-16.25
 11
37.7556
 21
-18.0589
  0
LINE
  8
0
 10
37.7556
 20
-18.0589
 11
37.5
 21
-20
  0
LINE
  8
0
 10
37.5
 20
-20
 11
37.7052
 21
-21.5583
  0
LINE
  8
0
 10
37.7052
 20
-21.5583
 11
36.1092
 21
-22.1671
  0
LINE
  8
0
 10
36.1092
 20
-22.1671
 11
35.9661
 21
-22.2229
  0
LINE
  8
0
 10
35.9661
 20
-22.2229
 11
35.9515
 21
-22.2288
  0
LINE
  8
0
 10
35.9515
 20
-22.2288
 11
35.8025
 21
-22.2896
  0
LINE
  8
0
 10
35.8025
 20
-22.2896
 11
31.4939
 21
-24.0904
  0
LINE
  8
0
 10
31.4939
 20
-24.0904
 11
31.343
 21
-24.155
  0
LINE
  8
0
 10
31.343
 20
-24.155
 11
31.3286
 21
-24.1613
  0
LINE
  8
0
 10
31.3286
 20
-24.1613
 11
31.1921
 21
-24.2222
  0
LINE
  8
0
 10
31.1921
 20
-24.2222
 11
26.9431
 21
-26.1568
  0
LINE
  8
0
 10
26.9431
 20
-26.1568
 11
26.8059
 21
-26.2205
  0
LINE
  8
0
 10
26.8059
 20
-26.2205
 11
26.7917
 21
-26.2272
  0
LINE
  8
0
 10
26.7917
 20
-26.2272
 11
26.6448
 21
-26.2982
  0
LINE
  8
0
 10
26.6448
 20
-26.2982
 11
22.4583
 21
-28.3656
  0
LINE
  8
0
 10
22.4583
 20
-28.3656
 11
22.3207
 21
-28.4349
  0
LINE
  8
0
 10
22.3207
 20
-28.4349
 11
22.3067
 21
-28.442
  0
LINE
  8
0
 10
22.3067
 20
-28.442
 11
22.1654
 21
-28.516
  0
LINE
  8
0
 10
22.1654
 20
-28.516
 11
18.0482
 21
-30.7123
  0
LINE
  8
0
 10
18.0482
 20
-30.7123
 11
17.3846
 21
-31.0998
  0
LINE
  8
0
 10
17.3846
 20
-31.0998
 11
17.3199
 21
-31.1409
  0
LINE
  8
0
 10
17.3199
 20
-31.1409
 11
16.6902
 21
-31.5766
  0
LINE
  8
0
 10
16.6902
 20
-31.5766
 11
16.6824
 21
-31.5824
  0
LINE
  8
0
 10
16.6824
 20
-31.5824
 11
15.6103
 21
-32.5124
  0
LINE
  8
0
 10
15.6103
 20
-32.5124
 11
15.5773
 21
-32.5454
  0
LINE
  8
0
 10
15.5773
 20
-32.5454
 11
15.5549
 21
-32.5617
  0
LINE
  8
0
 10
15.5549
 20
-32.5617
 11
15.5529
 21
-32.5637
  0
LINE
  8
0
 10
15.5529
 20
-32.5637
 11
15.518
 21
-32.6047
  0
LINE
  8
0
 10
15.518
 20
-32.6047
 11
15.5114
 21
-32.6113
  0
LINE
  8
0
 10
15.5114
 20
-32.6113
 11
14.5824
 21
-33.6824
  0
LINE
  8
0
 10
14.5824
 20
-33.6824
 11
14.5795
 21
-33.6863
  0
LINE
  8
0
 10
14.5795
 20
-33.6863
 11
14.5366
 21
-33.758
  0
LINE
  8
0
 10
14.5366
 20
-33.758
 11
14.5123
 21
-33.7866
  0
LINE
  8
0
 10
14.5123
 20
-33.7866
 11
14.4965
 21
-33.8086
  0
LINE
  8
0
 10
14.4965
 20
-33.8086
 11
14.5034
 21
-33.8136
  0
LINE
  8
0
 10
14.5034
 20
-33.8136
 11
14.4823
 21
-33.8489
  0
LINE
  8
0
 10
14.4823
 20
-33.8489
 11
14.4725
 21
-33.8419
  0
LINE
  8
0
 10
14.4725
 20
-33.8419
 11
14.4185
 21
-33.9167
  0
LINE
  8
0
 10
14.4185
 20
-33.9167
 11
13.586
 21
-35.2925
  0
LINE
  8
0
 10
13.586
 20
-35.2925
 11
13.5851
 21
-35.2945
  0
LINE
  8
0
 10
13.5851
 20
-35.2945
 11
13.534
 21
-35.4353
  0
LINE
  8
0
 10
13.534
 20
-35.4353
 11
13.5069
 21
-35.4807
  0
LINE
  8
0
 10
13.5069
 20
-35.4807
 11
13.3321
 21
-35.9921
  0
LINE
  8
0
 10
13.3321
 20
-35.9921
 11
13.2108
 21
-36.3266
  0
LINE
  8
0
 10
13.2108
 20
-36.3266
 11
13.1489
 21
-36.3037
  0
LINE
  8
0
 10
13.1489
 20
-36.3037
 11
13.1115
 21
-36.4047
  0
LINE
  8
0
 10
13.1115
 20
-36.4047
 11
12.7891
 21
-37.4485
  0
LINE
  8
0
 10
12.7891
 20
-37.4485
 11
12.7881
 21
-37.4524
  0
LINE
  8
0
 10
12.7881
 20
-37.4524
 11
12.5644
 21
-38.6563
  0
LINE
  8
0
 10
12.5644
 20
-38.6563
 11
12.5495
 21
-38.7776
  0
LINE
  8
0
 10
12.5495
 20
-38.7776
 11
12.4746
 21
-39.999
  0
LINE
  8
0
 10
12.4746
 20
-39.999
 11
12.4746
 21
-72.5692
  0
LINE
  8
0
 10
12.4746
 20
-72.5692
 11
11.0589
 21
-72.7556
  0
LINE
  8
0
 10
11.0589
 20
-72.7556
 11
9.25
 21
-73.5048
  0
LINE
  8
0
 10
9.25
 20
-73.5048
 11
7.69669
 21
-74.6967
  0
LINE
  8
0
 10
7.69669
 20
-74.6967
 11
6.50481
 21
-76.25
  0
LINE
  8
0
 10
6.50481
 20
-76.25
 11
5.75555
 21
-78.0589
  0
LINE
  8
0
 10
5.75555
 20
-78.0589
 11
5.5
 21
-80
  0
LINE
  8
0
 10
5.5
 20
-80
 11
5.75555
 21
-81.9411
  0
LINE
  8
0
 10
5.75555
 20
-81.9411
 11
6.50481
 21
-83.75
  0
LINE
  8
0
 10
6.50481
 20
-83.75
 11
7.69669
 21
-85.3033
  0
LINE
  8
0
 10
7.69669
 20
-85.3033
 11
9.25
 21
-86.4952
  0
LINE
  8
0
 10
9.25
 20
-86.4952
 11
11.0589
 21
-87.2444
  0
LINE
  8
0
 10
11.0589
 20
-87.2444
 11
12.4746
 21
-87.4308
  0
LINE
  8
0
 10
12.4746
 20
-87.4308
 11
12.4746
 21
-112.001
  0
LINE
  8
0
 10
12.4746
 20
-112.001
 11
12.476
 21
-112.169
  0
LINE
  8
0
 10
12.476
 20
-112.169
 11
12.4763
 21
-112.186
  0
LINE
  8
0
 10
12.4763
 20
-112.186
 11
12.4808
 21
-112.363
  0
LINE
  8
0
 10
12.4808
 20
-112.363
 11
12.4818
 21
-112.391
  0
LINE
  8
0
 10
12.4818
 20
-112.391
 11
12.5066
 21
-112.568
  0
LINE
  8
0
 10
12.5066
 20
-112.568
 11
12.4901
 21
-112.569
  0
LINE
  8
0
 10
12.4901
 20
-112.569
 11
12.492
 21
-112.606
  0
LINE
  8
0
 10
12.492
 20
-112.606
 11
12.5325
 21
-113.123
  0
LINE
  8
0
 10
12.5325
 20
-113.123
 11
12.6136
 21
-113.898
  0
LINE
  8
0
 10
12.6136
 20
-113.898
 11
12.7107
 21
-114.393
  0
LINE
  8
0
 10
12.7107
 20
-114.393
 11
12.6837
 21
-114.397
  0
LINE
  8
0
 10
12.6837
 20
-114.397
 11
12.6932
 21
-114.459
  0
LINE
  8
0
 10
12.6932
 20
-114.459
 11
12.9051
 21
-115.382
  0
LINE
  8
0
 10
12.9051
 20
-115.382
 11
12.9599
 21
-115.66
  0
LINE
  8
0
 10
12.9599
 20
-115.66
 11
12.9711
 21
-115.699
  0
LINE
  8
0
 10
12.9711
 20
-115.699
 11
12.9776
 21
-115.697
  0
LINE
  8
0
 10
12.9776
 20
-115.697
 11
13.0302
 21
-115.926
  0
LINE
  8
0
 10
13.0302
 20
-115.926
 11
13.2617
 21
-116.671
  0
LINE
  8
0
 10
13.2617
 20
-116.671
 11
13.4749
 21
-117.168
  0
LINE
  8
0
 10
13.4749
 20
-117.168
 11
13.6024
 21
-117.602
  0
LINE
  8
0
 10
13.6024
 20
-117.602
 11
14.0511
 21
-118.549
  0
LINE
  8
0
 10
14.0511
 20
-118.549
 11
14.4222
 21
-119.236
  0
LINE
  8
0
 10
14.4222
 20
-119.236
 11
14.7368
 21
-119.697
  0
LINE
  8
0
 10
14.7368
 20
-119.697
 11
14.9508
 21
-120.106
  0
LINE
  8
0
 10
14.9508
 20
-120.106
 11
15.1176
 21
-120.33
  0
LINE
  8
0
 10
15.1176
 20
-120.33
 11
15.1125
 21
-120.334
  0
LINE
  8
0
 10
15.1125
 20
-120.334
 11
15.1723
 21
-120.417
  0
LINE
  8
0
 10
15.1723
 20
-120.417
 11
15.1786
 21
-120.413
  0
LINE
  8
0
 10
15.1786
 20
-120.413
 11
15.5761
 21
-120.948
  0
LINE
  8
0
 10
15.5761
 20
-120.948
 11
16.0732
 21
-121.548
  0
LINE
  8
0
 10
16.0732
 20
-121.548
 11
16.0939
 21
-121.569
  0
LINE
  8
0
 10
16.0939
 20
-121.569
 11
16.7394
 21
-122.281
  0
LINE
  8
0
 10
16.7394
 20
-122.281
 11
16.7414
 21
-122.283
  0
LINE
  8
0
 10
16.7414
 20
-122.283
 11
17.1096
 21
-122.633
  0
LINE
  8
0
 10
17.1096
 20
-122.633
 11
17.1474
 21
-122.667
  0
LINE
  8
0
 10
17.1474
 20
-122.667
 11
17.5364
 21
-123.001
  0
LINE
  8
0
 10
17.5364
 20
-123.001
 11
18.1409
 21
-123.493
  0
LINE
  8
0
 10
18.1409
 20
-123.493
 11
18.5811
 21
-123.813
  0
LINE
  8
0
 10
18.5811
 20
-123.813
 11
18.5749
 21
-123.821
  0
LINE
  8
0
 10
18.5749
 20
-123.821
 11
18.5944
 21
-123.836
  0
LINE
  8
0
 10
18.5944
 20
-123.836
 11
18.7309
 21
-123.922
  0
LINE
  8
0
 10
18.7309
 20
-123.922
 11
19.0284
 21
-124.138
  0
LINE
  8
0
 10
19.0284
 20
-124.138
 11
19.0939
 21
-124.18
  0
LINE
  8
0
 10
19.0939
 20
-124.18
 11
19.1076
 21
-124.159
  0
LINE
  8
0
 10
19.1076
 20
-124.159
 11
19.8489
 21
-124.627
  0
LINE
  8
0
 10
19.8489
 20
-124.627
 11
20.5384
 21
-124.993
  0
LINE
  8
0
 10
20.5384
 20
-124.993
 11
20.6435
 21
-125.048
  0
LINE
  8
0
 10
20.6435
 20
-125.048
 11
20.6545
 21
-125.053
  0
LINE
  8
0
 10
20.6545
 20
-125.053
 11
20.7701
 21
-125.112
  0
LINE
  8
0
 10
20.7701
 20
-125.112
 11
21.4169
 21
-125.407
  0
LINE
  8
0
 10
21.4169
 20
-125.407
 11
21.4823
 21
-125.434
  0
LINE
  8
0
 10
21.4823
 20
-125.434
 11
22.1454
 21
-125.682
  0
LINE
  8
0
 10
22.1454
 20
-125.682
 11
22.2694
 21
-125.722
  0
LINE
  8
0
 10
22.2694
 20
-125.722
 11
22.2824
 21
-125.726
  0
LINE
  8
0
 10
22.2824
 20
-125.726
 11
22.4215
 21
-125.77
  0
LINE
  8
0
 10
22.4215
 20
-125.77
 11
23.1685
 21
-125.996
  0
LINE
  8
0
 10
23.1685
 20
-125.996
 11
24.0172
 21
-126.187
  0
LINE
  8
0
 10
24.0172
 20
-126.187
 11
24.012
 21
-126.211
  0
LINE
  8
0
 10
24.012
 20
-126.211
 11
24.0909
 21
-126.228
  0
LINE
  8
0
 10
24.0909
 20
-126.228
 11
24.4405
 21
-126.282
  0
LINE
  8
0
 10
24.4405
 20
-126.282
 11
24.6018
 21
-126.318
  0
LINE
  8
0
 10
24.6018
 20
-126.318
 11
24.6242
 21
-126.322
  0
LINE
  8
0
 10
24.6242
 20
-126.322
 11
24.6258
 21
-126.311
  0
LINE
  8
0
 10
24.6258
 20
-126.311
 11
25.198
 21
-126.399
  0
LINE
  8
0
 10
25.198
 20
-126.399
 11
25.9763
 21
-126.475
  0
LINE
  8
0
 10
25.9763
 20
-126.475
 11
26.4622
 21
-126.511
  0
LINE
  8
0
 10
26.4622
 20
-126.511
 11
26.5109
 21
-126.513
  0
LINE
  8
0
 10
26.5109
 20
-126.513
 11
26.999
 21
-126.525
  0
LINE
  8
0
 10
26.999
 20
-126.525
 11
49.6806
 21
-126.525
  0
LINE
  8
0
 10
49.6806
 20
-126.525
 11
50.0567
 21
-126.548
  0
LINE
  8
0
 10
50.0567
 20
-126.548
 11
50.1101
 21
-126.558
  0
LINE
  8
0
 10
50.1101
 20
-126.558
 11
50.1598
 21
-126.573
  0
LINE
  8
0
 10
50.1598
 20
-126.573
 11
50.213
 21
-126.597
  0
LINE
  8
0
 10
50.213
 20
-126.597
 11
50.2585
 21
-126.625
  0
LINE
  8
0
 10
50.2585
 20
-126.625
 11
50.3017
 21
-126.658
  0
LINE
  8
0
 10
50.3017
 20
-126.658
 11
50.34
 21
-126.696
  0
LINE
  8
0
 10
50.34
 20
-126.696
 11
50.3744
 21
-126.74
  0
LINE
  8
0
 10
50.3744
 20
-126.74
 11
50.403
 21
-126.787
  0
LINE
  8
0
 10
50.403
 20
-126.787
 11
50.4261
 21
-126.838
  0
LINE
  8
0
 10
50.4261
 20
-126.838
 11
50.4427
 21
-126.89
  0
LINE
  8
0
 10
50.4427
 20
-126.89
 11
50.4522
 21
-126.941
  0
LINE
  8
0
 10
50.4522
 20
-126.941
 11
50.4958
 21
-127.61
  0
LINE
  8
0
 10
50.4958
 20
-127.61
 11
50.5047
 21
-127.609
  0
LINE
  8
0
 10
50.5047
 20
-127.609
 11
50.5232
 21
-127.985
  0
LINE
  8
0
 10
50.5232
 20
-127.985
 11
50.5329
 21
-128.083
  0
LINE
  8
0
 10
50.5329
 20
-128.083
 11
50.6785
 21
-129.059
  0
LINE
  8
0
 10
50.6785
 20
-129.059
 11
50.6805
 21
-129.069
  0
LINE
  8
0
 10
50.6805
 20
-129.069
 11
51.3573
 21
-131.19
  0
LINE
  8
0
 10
51.3573
 20
-131.19
 11
51.4476
 21
-131.392
  0
LINE
  8
0
 10
51.4476
 20
-131.392
 11
52.5766
 21
-133.31
  0
LINE
  8
0
 10
52.5766
 20
-133.31
 11
52.5824
 21
-133.318
  0
LINE
  8
0
 10
52.5824
 20
-133.318
 11
53.0286
 21
-133.87
  0
LINE
  8
0
 10
53.0286
 20
-133.87
 11
53.075
 21
-133.924
  0
LINE
  8
0
 10
53.075
 20
-133.924
 11
53.5578
 21
-134.442
  0
LINE
  8
0
 10
53.5578
 20
-134.442
 11
53.5617
 21
-134.446
  0
LINE
  8
0
 10
53.5617
 20
-134.446
 11
54.785
 21
-135.487
  0
LINE
  8
0
 10
54.785
 20
-135.487
 11
54.915
 21
-135.581
  0
LINE
  8
0
 10
54.915
 20
-135.581
 11
56.2906
 21
-136.413
  0
LINE
  8
0
 10
56.2906
 20
-136.413
 11
56.2945
 21
-136.415
  0
LINE
  8
0
 10
56.2945
 20
-136.415
 11
56.6715
 21
-136.594
  0
LINE
  8
0
 10
56.6715
 20
-136.594
 11
56.7094
 21
-136.611
  0
LINE
  8
0
 10
56.7094
 20
-136.611
 11
57.0906
 21
-136.772
  0
LINE
  8
0
 10
57.0906
 20
-136.772
 11
57.0955
 21
-136.774
  0
LINE
  8
0
 10
57.0955
 20
-136.774
 11
58.9181
 21
-137.309
  0
LINE
  8
0
 10
58.9181
 20
-137.309
 11
59.1038
 21
-137.345
  0
LINE
  8
0
 10
59.1038
 20
-137.345
 11
60.9951
 21
-137.525
  0
LINE
  8
0
 10
60.9951
 20
-137.525
 11
98.8983
 21
-137.525
  0
LINE
  8
0
 10
98.8983
 20
-137.525
 11
102.743
 21
-137.6
  0
LINE
  8
0
 10
102.743
 20
-137.6
 11
106.479
 21
-137.814
  0
LINE
  8
0
 10
106.479
 20
-137.814
 11
110.202
 21
-138.173
  0
LINE
  8
0
 10
110.202
 20
-138.173
 11
113.913
 21
-138.674
  0
LINE
  8
0
 10
113.913
 20
-138.674
 11
117.598
 21
-139.318
  0
LINE
  8
0
 10
117.598
 20
-139.318
 11
121.258
 21
-140.102
  0
LINE
  8
0
 10
121.258
 20
-140.102
 11
124.884
 21
-141.027
  0
LINE
  8
0
 10
124.884
 20
-141.027
 11
128.474
 21
-142.09
  0
LINE
  8
0
 10
128.474
 20
-142.09
 11
132.018
 21
-143.29
  0
LINE
  8
0
 10
132.018
 20
-143.29
 11
135.514
 21
-144.624
  0
LINE
  8
0
 10
135.514
 20
-144.624
 11
138.954
 21
-146.092
  0
LINE
  8
0
 10
138.954
 20
-146.092
 11
142.339
 21
-147.693
  0
LINE
  8
0
 10
142.339
 20
-147.693
 11
145.673
 21
-149.428
  0
LINE
  8
0
 10
145.673
 20
-149.428
 11
148.624
 21
-151.101
  0
LINE
  8
0
 10
148.624
 20
-151.101
 11
148.852
 21
-151.226
  0
LINE
  8
0
 10
148.852
 20
-151.226
 11
148.875
 21
-151.238
  0
LINE
  8
0
 10
148.875
 20
-151.238
 11
149.106
 21
-151.357
  0
LINE
  8
0
 10
149.106
 20
-151.357
 11
149.11
 21
-151.359
  0
LINE
  8
0
 10
149.11
 20
-151.359
 11
150.337
 21
-151.874
  0
LINE
  8
0
 10
150.337
 20
-151.874
 11
150.462
 21
-151.917
  0
LINE
  8
0
 10
150.462
 20
-151.917
 11
151.746
 21
-152.264
  0
LINE
  8
0
 10
151.746
 20
-152.264
 11
151.751
 21
-152.265
  0
LINE
  8
0
 10
151.751
 20
-152.265
 11
152.728
 21
-152.41
  0
LINE
  8
0
 10
152.728
 20
-152.41
 11
152.826
 21
-152.42
  0
LINE
  8
0
 10
152.826
 20
-152.42
 11
153.811
 21
-152.469
  0
LINE
  8
0
 10
153.811
 20
-152.469
 11
153.819
 21
-152.469
  0
LINE
  8
0
 10
153.819
 20
-152.469
 11
155.088
 21
-152.321
  0
LINE
  8
0
 10
124.904
 20
-20.4184
 11
123.93
 21
-18.9015
  0
LINE
  8
0
 10
123.93
 20
-18.9015
 11
123.93
 21
-17.0984
  0
LINE
  8
0
 10
123.93
 20
-17.0984
 11
124.904
 21
-15.5816
  0
LINE
  8
0
 10
124.904
 20
-15.5816
 11
126.545
 21
-14.8326
  0
LINE
  8
0
 10
126.545
 20
-14.8326
 11
128.329
 21
-15.0892
  0
LINE
  8
0
 10
128.329
 20
-15.0892
 11
129.692
 21
-16.2699
  0
LINE
  8
0
 10
129.692
 20
-16.2699
 11
130.2
 21
-18
  0
LINE
  8
0
 10
130.2
 20
-18
 11
129.692
 21
-19.73
  0
LINE
  8
0
 10
129.692
 20
-19.73
 11
128.329
 21
-20.9108
  0
LINE
  8
0
 10
128.329
 20
-20.9108
 11
126.545
 21
-21.1674
  0
LINE
  8
0
 10
126.545
 20
-21.1674
 11
124.904
 21
-20.4184
  0
LINE
  8
0
 10
42.9044
 20
-22.4184
 11
41.9296
 21
-20.9015
  0
LINE
  8
0
 10
41.9296
 20
-20.9015
 11
41.9296
 21
-19.0984
  0
LINE
  8
0
 10
41.9296
 20
-19.0984
 11
42.9044
 21
-17.5816
  0
LINE
  8
0
 10
42.9044
 20
-17.5816
 11
44.5446
 21
-16.8326
  0
LINE
  8
0
 10
44.5446
 20
-16.8326
 11
46.3293
 21
-17.0892
  0
LINE
  8
0
 10
46.3293
 20
-17.0892
 11
47.692
 21
-18.2699
  0
LINE
  8
0
 10
47.692
 20
-18.2699
 11
48.2
 21
-20
  0
LINE
  8
0
 10
48.2
 20
-20
 11
47.692
 21
-21.73
  0
LINE
  8
0
 10
47.692
 20
-21.73
 11
46.3293
 21
-22.9108
  0
LINE
  8
0
 10
46.3293
 20
-22.9108
 11
44.5446
 21
-23.1674
  0
LINE
  8
0
 10
44.5446
 20
-23.1674
 11
42.9044
 21
-22.4184
  0
LINE
  8
0
 10
83
 20
-38
 11
83
 21
-24
  0
LINE
  8
0
 10
83
 20
-24
 11
97
 21
-24
  0
LINE
  8
0
 10
97
 20
-24
 11
97
 21
-38
  0
LINE
  8
0
 10
97
 20
-38
 11
83
 21
-38
  0
LINE
  8
0
 10
64
 20
-42
 11
64
 21
-28
  0
LINE
  8
0
 10
64
 20
-28
 11
78
 21
-28
  0
LINE
  8
0
 10
78
 20
-28
 11
78
 21
-42
  0
LINE
  8
0
 10
78
 20
-42
 11
64
 21
-42
  0
LINE
  8
0
 10
102
 20
-46
 11
102
 21
-32
  0
LINE
  8
0
 10
102
 20
-32
 11
116
 21
-32
  0
LINE
  8
0
 10
116
 20
-32
 11
116
 21
-46
  0
LINE
  8
0
 10
116
 20
-46
 11
102
 21
-46
  0
LINE
  8
0
 10
121
 20
-48
 11
121
 21
-34
  0
LINE
  8
0
 10
121
 20
-34
 11
135
 21
-34
  0
LINE
  8
0
 10
135
 20
-34
 11
135
 21
-48
  0
LINE
  8
0
 10
135
 20
-48
 11
121
 21
-48
  0
LINE
  8
0
 10
45
 20
-56
 11
45
 21
-42
  0
LINE
  8
0
 10
45
 20
-42
 11
59
 21
-42
  0
LINE
  8
0
 10
59
 20
-42
 11
59
 21
-56
  0
LINE
  8
0
 10
59
 20
-56
 11
45
 21
-56
  0
LINE
  8
0
 10
83
 20
-57
 11
83
 21
-43
  0
LINE
  8
0
 10
83
 20
-43
 11
97
 21
-43
  0
LINE
  8
0
 10
97
 20
-43
 11
97
 21
-57
  0
LINE
  8
0
 10
97
 20
-57
 11
83
 21
-57
  0
LINE
  8
0
 10
26
 20
-59
 11
26
 21
-45
  0
LINE
  8
0
 10
26
 20
-45
 11
40
 21
-45
  0
LINE
  8
0
 10
40
 20
-45
 11
40
 21
-59
  0
LINE
  8
0
 10
40
 20
-59
 11
26
 21
-59
  0
LINE
  8
0
 10
170.904
 20
-52.4184
 11
169.93
 21
-50.9015
  0
LINE
  8
0
 10
169.93
 20
-50.9015
 11
169.93
 21
-49.0984
  0
LINE
  8
0
 10
169.93
 20
-49.0984
 11
170.904
 21
-47.5816
  0
LINE
  8
0
 10
170.904
 20
-47.5816
 11
172.545
 21
-46.8326
  0
LINE
  8
0
 10
172.545
 20
-46.8326
 11
174.329
 21
-47.0892
  0
LINE
  8
0
 10
174.329
 20
-47.0892
 11
175.692
 21
-48.2699
  0
LINE
  8
0
 10
175.692
 20
-48.2699
 11
176.2
 21
-50
  0
LINE
  8
0
 10
176.2
 20
-50
 11
175.692
 21
-51.73
  0
LINE
  8
0
 10
175.692
 20
-51.73
 11
174.329
 21
-52.9108
  0
LINE
  8
0
 10
174.329
 20
-52.9108
 11
172.545
 21
-53.1674
  0
LINE
  8
0
 10
172.545
 20
-53.1674
 11
170.904
 21
-52.4184
  0
LINE
  8
0
 10
64
 20
-61
 11
64
 21
-47
  0
LINE
  8
0
 10
64
 20
-47
 11
78
 21
-47
  0
LINE
  8
0
 10
78
 20
-47
 11
78
 21
-61
  0
LINE
  8
0
 10
78
 20
-61
 11
64
 21
-61
  0
LINE
  8
0
 10
102
 20
-65
 11
102
 21
-51
  0
LINE
  8
0
 10
102
 20
-51
 11
116
 21
-51
  0
LINE
  8
0
 10
116
 20
-51
 11
116
 21
-65
  0
LINE
  8
0
 10
116
 20
-65
 11
102
 21
-65
  0
LINE
  8
0
 10
121
 20
-67
 11
121
 21
-53
  0
LINE
  8
0
 10
121
 20
-53
 11
135
 21
-53
  0
LINE
  8
0
 10
135
 20
-53
 11
135
 21
-67
  0
LINE
  8
0
 10
135
 20
-67
 11
121
 21
-67
  0
LINE
  8
0
 10
45
 20
-75
 11
45
 21
-61
  0
LINE
  8
0
 10
45
 20
-61
 11
59
 21
-61
  0
LINE
  8
0
 10
59
 20
-61
 11
59
 21
-75
  0
LINE
  8
0
 10
59
 20
-75
 11
45
 21
-75
  0
LINE
  8
0
 10
83
 20
-76
 11
83
 21
-62
  0
LINE
  8
0
 10
83
 20
-62
 11
97
 21
-62
  0
LINE
  8
0
 10
97
 20
-62
 11
97
 21
-76
  0
LINE
  8
0
 10
97
 20
-76
 11
83
 21
-76
  0
LINE
  8
0
 10
26
 20
-78
 11
26
 21
-64
  0
LINE
  8
0
 10
26
 20
-64
 11
40
 21
-64
  0
LINE
  8
0
 10
40
 20
-64
 11
40
 21
-78
  0
LINE
  8
0
 10
40
 20
-78
 11
26
 21
-78
  0
LINE
  8
0
 10
64
 20
-80
 11
64
 21
-66
  0
LINE
  8
0
 10
64
 20
-66
 11
78
 21
-66
  0
LINE
  8
0
 10
78
 20
-66
 11
78
 21
-80
  0
LINE
  8
0
 10
78
 20
-80
 11
64
 21
-80
  0
LINE
  8
0
 10
102
 20
-84
 11
102
 21
-70
  0
LINE
  8
0
 10
102
 20
-70
 11
116
 21
-70
  0
LINE
  8
0
 10
116
 20
-70
 11
116
 21
-84
  0
LINE
  8
0
 10
116
 20
-84
 11
102
 21
-84
  0
LINE
  8
0
 10
121
 20
-86
 11
121
 21
-72
  0
LINE
  8
0
 10
121
 20
-72
 11
135
 21
-72
  0
LINE
  8
0
 10
135
 20
-72
 11
135
 21
-86
  0
LINE
  8
0
 10
135
 20
-86
 11
121
 21
-86
  0
LINE
  8
0
 10
10.9044
 20
-82.4184
 11
9.92961
 21
-80.9015
  0
LINE
  8
0
 10
9.92961
 20
-80.9015
 11
9.92961
 21
-79.0984
  0
LINE
  8
0
 10
9.92961
 20
-79.0984
 11
10.9044
 21
-77.5816
  0
LINE
  8
0
 10
10.9044
 20
-77.5816
 11
12.5446
 21
-76.8326
  0
LINE
  8
0
 10
12.5446
 20
-76.8326
 11
14.3293
 21
-77.0892
  0
LINE
  8
0
 10
14.3293
 20
-77.0892
 11
15.692
 21
-78.2699
  0
LINE
  8
0
 10
15.692
 20
-78.2699
 11
16.2
 21
-80
  0
LINE
  8
0
 10
16.2
 20
-80
 11
15.692
 21
-81.73
  0
LINE
  8
0
 10
15.692
 20
-81.73
 11
14.3293
 21
-82.9108
  0
LINE
  8
0
 10
14.3293
 20
-82.9108
 11
12.5446
 21
-83.1674
  0
LINE
  8
0
 10
12.5446
 20
-83.1674
 11
10.9044
 21
-82.4184
  0
LINE
  8
0
 10
45
 20
-94
 11
45
 21
-80
  0
LINE
  8
0
 10
45
 20
-80
 11
59
 21
-80
  0
LINE
  8
0
 10
59
 20
-80
 11
59
 21
-94
  0
LINE
  8
0
 10
59
 20
-94
 11
45
 21
-94
  0
LINE
  8
0
 10
83
 20
-95
 11
83
 21
-81
  0
LINE
  8
0
 10
83
 20
-81
 11
97
 21
-81
  0
LINE
  8
0
 10
97
 20
-81
 11
97
 21
-95
  0
LINE
  8
0
 10
97
 20
-95
 11
83
 21
-95
  0
LINE
  8
0
 10
26
 20
-97
 11
26
 21
-83
  0
LINE
  8
0
 10
26
 20
-83
 11
40
 21
-83
  0
LINE
  8
0
 10
40
 20
-83
 11
40
 21
-97
  0
LINE
  8
0
 10
40
 20
-97
 11
26
 21
-97
  0
LINE
  8
0
 10
64
 20
-99
 11
64
 21
-85
  0
LINE
  8
0
 10
64
 20
-85
 11
78
 21
-85
  0
LINE
  8
0
 10
78
 20
-85
 11
78
 21
-99
  0
LINE
  8
0
 10
78
 20
-99
 11
64
 21
-99
  0
LINE
  8
0
 10
102
 20
-103
 11
102
 21
-89
  0
LINE
  8
0
 10
102
 20
-89
 11
116
 21
-89
  0
LINE
  8
0
 10
116
 20
-89
 11
116
 21
-103
  0
LINE
  8
0
 10
116
 20
-103
 11
102
 21
-103
  0
LINE
  8
0
 10
121
 20
-105
 11
121
 21
-91
  0
LINE
  8
0
 10
121
 20
-91
 11
135
 21
-91
  0
LINE
  8
0
 10
135
 20
-91
 11
135
 21
-105
  0
LINE
  8
0
 10
135
 20
-105
 11
121
 21
-105
  0
LINE
  8
0
 10
141
 20
-109
 11
141
 21
-95
  0
LINE
  8
0
 10
141
 20
-95
 11
155
 21
-95
  0
LINE
  8
0
 10
155
 20
-95
 11
155
 21
-109
  0
LINE
  8
0
 10
155
 20
-109
 11
141
 21
-109
  0
LINE
  8
0
 10
45
 20
-113
 11
45
 21
-99
  0
LINE
  8
0
 10
45
 20
-99
 11
59
 21
-99
  0
LINE
  8
0
 10
59
 20
-99
 11
59
 21
-113
  0
LINE
  8
0
 10
59
 20
-113
 11
45
 21
-113
  0
LINE
  8
0
 10
26
 20
-116
 11
26
 21
-102
  0
LINE
  8
0
 10
26
 20
-102
 11
40
 21
-102
  0
LINE
  8
0
 10
40
 20
-102
 11
40
 21
-116
  0
LINE
  8
0
 10
40
 20
-116
 11
26
 21
-116
  0
LINE
  8
0
 10
102
 20
-124
 11
102
 21
-110
  0
LINE
  8
0
 10
102
 20
-110
 11
116
 21
-110
  0
LINE
  8
0
 10
116
 20
-110
 11
116
 21
-124
  0
LINE
  8
0
 10
116
 20
-124
 11
102
 21
-124
  0
LINE
  8
0
 10
83
 20
-124
 11
83
 21
-110
  0
LINE
  8
0
 10
83
 20
-110
 11
97
 21
-110
  0
LINE
  8
0
 10
97
 20
-110
 11
97
 21
-124
  0
LINE
  8
0
 10
97
 20
-124
 11
83
 21
-124
  0
LINE
  8
0
 10
64
 20
-124
 11
64
 21
-110
  0
LINE
  8
0
 10
64
 20
-110
 11
78
 21
-110
  0
LINE
  8
0
 10
78
 20
-110
 11
78
 21
-124
  0
LINE
  8
0
 10
78
 20
-124
 11
64
 21
-124
  0
LINE
  8
0
 10
121.627
 20
-124.75
 11
125.25
 21
-111.227
  0
LINE
  8
0
 10
125.25
 20
-111.227
 11
138.773
 21
-114.85
  0
LINE
  8
0
 10
138.773
 20
-114.85
 11
135.15
 21
-128.373
  0
LINE
  8
0
 10
135.15
 20
-128.373
 11
121.627
 21
-124.75
  0
LINE
  8
0
 10
140.438
 20
-130.562
 11
147.438
 21
-118.438
  0
LINE
  8
0
 10
147.438
 20
-118.438
 11
159.562
 21
-125.438
  0
LINE
  8
0
 10
159.562
 20
-125.438
 11
152.562
 21
-137.562
  0
LINE
  8
0
 10
152.562
 20
-137.562
 11
140.438
 21
-130.562
  0
LINE
  8
0
 10
162.904
 20
-142.418
 11
161.93
 21
-140.902
  0
LINE
  8
0
 10
161.93
 20
-140.902
 11
161.93
 21
-139.098
  0
LINE
  8
0
 10
161.93
 20
-139.098
 11
162.904
 21
-137.582
  0
LINE
  8
0
 10
162.904
 20
-137.582
 11
164.545
 21
-136.833
  0
LINE
  8
0
 10
164.545
 20
-136.833
 11
166.329
 21
-137.089
  0
LINE
  8
0
 10
166.329
 20
-137.089
 11
167.692
 21
-138.27
  0
LINE
  8
0
 10
167.692
 20
-138.27
 11
168.2
 21
-140
  0
LINE
  8
0
 10
168.2
 20
-140
 11
167.692
 21
-141.73
  0
LINE
  8
0
 10
167.692
 20
-141.73
 11
166.329
 21
-142.911
  0
LINE
  8
0
 10
166.329
 20
-142.911
 11
164.545
 21
-143.167
  0
LINE
  8
0
 10
164.545
 20
-143.167
 11
162.904
 21
-142.418
  0
ENDSEC
  0
SECTION
  2
OBJECTS
  0
DICTIONARY
  0
ENDSEC
  0
EOF
