  0
SECTION
  2
BLOCKS
  0
ENDSEC
  0
SECTION
  2
ENTITIES
  0
LINE
  8
0
 10
155.686
 20
-152.751
 11
155.762
 21
-152.748
  0
LINE
  8
0
 10
155.762
 20
-152.748
 11
155.8
 21
-152.738
  0
LINE
  8
0
 10
155.8
 20
-152.738
 11
156.117
 21
-152.701
  0
LINE
  8
0
 10
156.117
 20
-152.701
 11
156.313
 21
-152.655
  0
LINE
  8
0
 10
156.313
 20
-152.655
 11
156.489
 21
-152.639
  0
LINE
  8
0
 10
156.489
 20
-152.639
 11
156.493
 21
-152.638
  0
LINE
  8
0
 10
156.493
 20
-152.638
 11
156.951
 21
-152.456
  0
LINE
  8
0
 10
156.951
 20
-152.456
 11
157.108
 21
-152.398
  0
LINE
  8
0
 10
157.108
 20
-152.398
 11
157.785
 21
-152.223
  0
LINE
  8
0
 10
157.785
 20
-152.223
 11
158.732
 21
-151.81
  0
LINE
  8
0
 10
158.732
 20
-151.81
 11
158.739
 21
-151.807
  0
LINE
  8
0
 10
158.739
 20
-151.807
 11
158.741
 21
-151.806
  0
LINE
  8
0
 10
158.741
 20
-151.806
 11
158.742
 21
-151.805
  0
LINE
  8
0
 10
158.742
 20
-151.805
 11
158.747
 21
-151.804
  0
LINE
  8
0
 10
158.747
 20
-151.804
 11
158.748
 21
-151.803
  0
LINE
  8
0
 10
158.748
 20
-151.803
 11
159.433
 21
-151.388
  0
LINE
  8
0
 10
159.433
 20
-151.388
 11
159.434
 21
-151.39
  0
LINE
  8
0
 10
159.434
 20
-151.39
 11
159.435
 21
-151.39
  0
LINE
  8
0
 10
159.435
 20
-151.39
 11
159.451
 21
-151.378
  0
LINE
  8
0
 10
159.451
 20
-151.378
 11
160.123
 21
-150.971
  0
LINE
  8
0
 10
160.123
 20
-150.971
 11
160.382
 21
-150.784
  0
LINE
  8
0
 10
160.382
 20
-150.784
 11
161.607
 21
-149.742
  0
LINE
  8
0
 10
161.607
 20
-149.742
 11
161.609
 21
-149.74
  0
LINE
  8
0
 10
161.609
 20
-149.74
 11
162.738
 21
-148.346
  0
LINE
  8
0
 10
162.738
 20
-148.346
 11
162.986
 21
-148.063
  0
LINE
  8
0
 10
162.986
 20
-148.063
 11
162.988
 21
-148.06
  0
LINE
  8
0
 10
162.988
 20
-148.06
 11
163.164
 21
-147.785
  0
LINE
  8
0
 10
163.164
 20
-147.785
 11
163.199
 21
-147.729
  0
LINE
  8
0
 10
163.199
 20
-147.729
 11
163.366
 21
-147.45
  0
LINE
  8
0
 10
163.366
 20
-147.45
 11
163.454
 21
-147.296
  0
LINE
  8
0
 10
163.454
 20
-147.296
 11
165
 21
-147.5
  0
LINE
  8
0
 10
165
 20
-147.5
 11
166.941
 21
-147.244
  0
LINE
  8
0
 10
166.941
 20
-147.244
 11
168.75
 21
-146.495
  0
LINE
  8
0
 10
168.75
 20
-146.495
 11
170.303
 21
-145.303
  0
LINE
  8
0
 10
170.303
 20
-145.303
 11
171.495
 21
-143.75
  0
LINE
  8
0
 10
171.495
 20
-143.75
 11
172.244
 21
-141.941
  0
LINE
  8
0
 10
172.244
 20
-141.941
 11
172.5
 21
-140
  0
LINE
  8
0
 10
172.5
 20
-140
 11
172.244
 21
-138.059
  0
LINE
  8
0
 10
172.244
 20
-138.059
 11
171.495
 21
-136.25
  0
LINE
  8
0
 10
171.495
 20
-136.25
 11
170.538
 21
-135.002
  0
LINE
  8
0
 10
170.538
 20
-135.002
 11
172.553
 21
-131.505
  0
LINE
  8
0
 10
172.553
 20
-131.505
 11
172.696
 21
-131.248
  0
LINE
  8
0
 10
172.696
 20
-131.248
 11
172.724
 21
-131.196
  0
LINE
  8
0
 10
172.724
 20
-131.196
 11
172.86
 21
-130.933
  0
LINE
  8
0
 10
172.86
 20
-130.933
 11
172.863
 21
-130.927
  0
LINE
  8
0
 10
172.863
 20
-130.927
 11
173.416
 21
-129.4
  0
LINE
  8
0
 10
173.416
 20
-129.4
 11
173.652
 21
-128.749
  0
LINE
  8
0
 10
173.652
 20
-128.749
 11
173.758
 21
-128.301
  0
LINE
  8
0
 10
173.758
 20
-128.301
 11
174.025
 21
-126.004
  0
LINE
  8
0
 10
174.025
 20
-126.004
 11
174.025
 21
-93
  0
LINE
  8
0
 10
174.025
 20
-93
 11
148
 21
-93
  0
LINE
  8
0
 10
148
 20
-93
 11
148
 21
-79
  0
LINE
  8
0
 10
148
 20
-79
 11
174.025
 21
-79
  0
LINE
  8
0
 10
174.025
 20
-79
 11
174.025
 21
-57.365
  0
LINE
  8
0
 10
174.025
 20
-57.365
 11
174.941
 21
-57.2444
  0
LINE
  8
0
 10
174.941
 20
-57.2444
 11
176.75
 21
-56.4952
  0
LINE
  8
0
 10
176.75
 20
-56.4952
 11
178.303
 21
-55.3033
  0
LINE
  8
0
 10
178.303
 20
-55.3033
 11
179.495
 21
-53.75
  0
LINE
  8
0
 10
179.495
 20
-53.75
 11
180.244
 21
-51.9411
  0
LINE
  8
0
 10
180.244
 20
-51.9411
 11
180.5
 21
-50
  0
LINE
  8
0
 10
180.5
 20
-50
 11
180.244
 21
-48.0589
  0
LINE
  8
0
 10
180.244
 20
-48.0589
 11
179.495
 21
-46.25
  0
LINE
  8
0
 10
179.495
 20
-46.25
 11
178.303
 21
-44.6967
  0
LINE
  8
0
 10
178.303
 20
-44.6967
 11
176.75
 21
-43.5048
  0
LINE
  8
0
 10
176.75
 20
-43.5048
 11
174.941
 21
-42.7556
  0
LINE
  8
0
 10
174.941
 20
-42.7556
 11
174.025
 21
-42.635
  0
LINE
  8
0
 10
174.025
 20
-42.635
 11
174.025
 21
-34.4766
  0
LINE
  8
0
 10
174.025
 20
-34.4766
 11
174.012
 21
-33.9504
  0
LINE
  8
0
 10
174.012
 20
-33.9504
 11
174.006
 21
-33.8452
  0
LINE
  8
0
 10
174.006
 20
-33.8452
 11
173.964
 21
-33.3203
  0
LINE
  8
0
 10
173.964
 20
-33.3203
 11
173.903
 21
-32.7382
  0
LINE
  8
0
 10
173.903
 20
-32.7382
 11
173.805
 21
-32.1271
  0
LINE
  8
0
 10
173.805
 20
-32.1271
 11
173.81
 21
-32.1263
  0
LINE
  8
0
 10
173.81
 20
-32.1263
 11
173.805
 21
-32.0934
  0
LINE
  8
0
 10
173.805
 20
-32.0934
 11
173.786
 21
-32.0128
  0
LINE
  8
0
 10
173.786
 20
-32.0128
 11
173.731
 21
-31.6702
  0
LINE
  8
0
 10
173.731
 20
-31.6702
 11
173.696
 21
-31.5066
  0
LINE
  8
0
 10
173.696
 20
-31.5066
 11
173.671
 21
-31.5119
  0
LINE
  8
0
 10
173.671
 20
-31.5119
 11
173.468
 21
-30.6264
  0
LINE
  8
0
 10
173.468
 20
-30.6264
 11
173.294
 21
-30.0668
  0
LINE
  8
0
 10
173.294
 20
-30.0668
 11
173.257
 21
-29.9807
  0
LINE
  8
0
 10
173.257
 20
-29.9807
 11
173.225
 21
-29.8496
  0
LINE
  8
0
 10
173.225
 20
-29.8496
 11
173.224
 21
-29.8467
  0
LINE
  8
0
 10
173.224
 20
-29.8467
 11
172.91
 21
-29.0272
  0
LINE
  8
0
 10
172.91
 20
-29.0272
 11
172.84
 21
-28.8664
  0
LINE
  8
0
 10
172.84
 20
-28.8664
 11
172.456
 21
-28.0784
  0
LINE
  8
0
 10
172.456
 20
-28.0784
 11
172.177
 21
-27.5638
  0
LINE
  8
0
 10
172.177
 20
-27.5638
 11
171.457
 21
-26.5164
  0
LINE
  8
0
 10
171.457
 20
-26.5164
 11
171.496
 21
-26.4884
  0
LINE
  8
0
 10
171.496
 20
-26.4884
 11
171.381
 21
-26.3287
  0
LINE
  8
0
 10
171.381
 20
-26.3287
 11
171.346
 21
-26.354
  0
LINE
  8
0
 10
171.346
 20
-26.354
 11
171.107
 21
-26.0067
  0
LINE
  8
0
 10
171.107
 20
-26.0067
 11
170.983
 21
-25.7971
  0
LINE
  8
0
 10
170.983
 20
-25.7971
 11
170.61
 21
-25.346
  0
LINE
  8
0
 10
170.61
 20
-25.346
 11
170.343
 21
-25.0837
  0
LINE
  8
0
 10
170.343
 20
-25.0837
 11
169.91
 21
-24.5753
  0
LINE
  8
0
 10
169.91
 20
-24.5753
 11
169.908
 21
-24.5734
  0
LINE
  8
0
 10
169.908
 20
-24.5734
 11
169.54
 21
-24.2239
  0
LINE
  8
0
 10
169.54
 20
-24.2239
 11
169.465
 21
-24.1559
  0
LINE
  8
0
 10
169.465
 20
-24.1559
 11
169.08
 21
-23.825
  0
LINE
  8
0
 10
169.08
 20
-23.825
 11
168.625
 21
-23.4548
  0
LINE
  8
0
 10
168.625
 20
-23.4548
 11
167.735
 21
-22.8075
  0
LINE
  8
0
 10
167.735
 20
-22.8075
 11
167.569
 21
-22.7001
  0
LINE
  8
0
 10
167.569
 20
-22.7001
 11
167.518
 21
-22.7786
  0
LINE
  8
0
 10
167.518
 20
-22.7786
 11
166.846
 21
-22.2726
  0
LINE
  8
0
 10
166.846
 20
-22.2726
 11
166.33
 21
-21.9972
  0
LINE
  8
0
 10
166.33
 20
-21.9972
 11
166.214
 21
-21.9366
  0
LINE
  8
0
 10
166.214
 20
-21.9366
 11
166.191
 21
-21.9246
  0
LINE
  8
0
 10
166.191
 20
-21.9246
 11
166.073
 21
-21.8644
  0
LINE
  8
0
 10
166.073
 20
-21.8644
 11
165.427
 21
-21.5699
  0
LINE
  8
0
 10
165.427
 20
-21.5699
 11
165.296
 21
-21.5156
  0
LINE
  8
0
 10
165.296
 20
-21.5156
 11
164.632
 21
-21.2676
  0
LINE
  8
0
 10
164.632
 20
-21.2676
 11
164.629
 21
-21.2666
  0
LINE
  8
0
 10
164.629
 20
-21.2666
 11
164.491
 21
-21.2219
  0
LINE
  8
0
 10
164.491
 20
-21.2219
 11
164.464
 21
-21.2131
  0
LINE
  8
0
 10
164.464
 20
-21.2131
 11
164.325
 21
-21.1701
  0
LINE
  8
0
 10
164.325
 20
-21.1701
 11
163.764
 21
-21.0012
  0
LINE
  8
0
 10
163.764
 20
-21.0012
 11
162.913
 21
-20.8113
  0
LINE
  8
0
 10
162.913
 20
-20.8113
 11
162.918
 21
-20.7888
  0
LINE
  8
0
 10
162.918
 20
-20.7888
 11
162.768
 21
-20.7568
  0
LINE
  8
0
 10
162.768
 20
-20.7568
 11
162.443
 21
-20.7063
  0
LINE
  8
0
 10
162.443
 20
-20.7063
 11
162.338
 21
-20.6828
  0
LINE
  8
0
 10
162.338
 20
-20.6828
 11
162.293
 21
-20.6762
  0
LINE
  8
0
 10
162.293
 20
-20.6762
 11
162.292
 21
-20.6828
  0
LINE
  8
0
 10
162.292
 20
-20.6828
 11
161.665
 21
-20.5854
  0
LINE
  8
0
 10
161.665
 20
-20.5854
 11
161.081
 21
-20.5278
  0
LINE
  8
0
 10
161.081
 20
-20.5278
 11
160.591
 21
-20.4916
  0
LINE
  8
0
 10
160.591
 20
-20.4916
 11
160.493
 21
-20.4867
  0
LINE
  8
0
 10
160.493
 20
-20.4867
 11
160.001
 21
-20.4746
  0
LINE
  8
0
 10
160.001
 20
-20.4746
 11
160
 21
-20.4746
  0
LINE
  8
0
 10
160
 20
-20.4746
 11
160
 21
-66
  0
LINE
  8
0
 10
160
 20
-66
 11
140
 21
-66
  0
LINE
  8
0
 10
140
 20
-66
 11
140
 21
-16.8495
  0
LINE
  8
0
 10
140
 20
-16.8495
 11
139.165
 21
-16.6002
  0
LINE
  8
0
 10
139.165
 20
-16.6002
 11
139.042
 21
-16.5643
  0
LINE
  8
0
 10
139.042
 20
-16.5643
 11
139.017
 21
-16.5572
  0
LINE
  8
0
 10
139.017
 20
-16.5572
 11
138.889
 21
-16.5219
  0
LINE
  8
0
 10
138.889
 20
-16.5219
 11
134.382
 21
-15.3031
  0
LINE
  8
0
 10
134.382
 20
-15.3031
 11
134.228
 21
-15.2628
  0
LINE
  8
0
 10
134.228
 20
-15.2628
 11
134.197
 21
-15.255
  0
LINE
  8
0
 10
134.197
 20
-15.255
 11
134.044
 21
-15.2175
  0
LINE
  8
0
 10
134.044
 20
-15.2175
 11
133.88
 21
-15.1787
  0
LINE
  8
0
 10
133.88
 20
-15.1787
 11
133.495
 21
-14.25
  0
LINE
  8
0
 10
133.495
 20
-14.25
 11
132.303
 21
-12.6967
  0
LINE
  8
0
 10
132.303
 20
-12.6967
 11
130.75
 21
-11.5048
  0
LINE
  8
0
 10
130.75
 20
-11.5048
 11
128.941
 21
-10.7556
  0
LINE
  8
0
 10
128.941
 20
-10.7556
 11
127
 21
-10.5
  0
LINE
  8
0
 10
127
 20
-10.5
 11
125.059
 21
-10.7556
  0
LINE
  8
0
 10
125.059
 20
-10.7556
 11
123.25
 21
-11.5048
  0
LINE
  8
0
 10
123.25
 20
-11.5048
 11
121.763
 21
-12.6462
  0
LINE
  8
0
 10
121.763
 20
-12.6462
 11
119.647
 21
-12.2838
  0
LINE
  8
0
 10
119.647
 20
-12.2838
 11
119.488
 21
-12.258
  0
LINE
  8
0
 10
119.488
 20
-12.258
 11
119.457
 21
-12.2532
  0
LINE
  8
0
 10
119.457
 20
-12.2532
 11
119.306
 21
-12.231
  0
LINE
  8
0
 10
119.306
 20
-12.231
 11
114.682
 21
-11.5874
  0
LINE
  8
0
 10
114.682
 20
-11.5874
 11
114.527
 21
-11.5671
  0
LINE
  8
0
 10
114.527
 20
-11.5671
 11
114.496
 21
-11.5633
  0
LINE
  8
0
 10
114.496
 20
-11.5633
 11
114.339
 21
-11.5452
  0
LINE
  8
0
 10
114.339
 20
-11.5452
 11
109.697
 21
-11.0471
  0
LINE
  8
0
 10
109.697
 20
-11.0471
 11
109.541
 21
-11.0316
  0
LINE
  8
0
 10
109.541
 20
-11.0316
 11
109.509
 21
-11.0288
  0
LINE
  8
0
 10
109.509
 20
-11.0288
 11
109.352
 21
-11.0156
  0
LINE
  8
0
 10
109.352
 20
-11.0156
 11
104.695
 21
-10.664
  0
LINE
  8
0
 10
104.695
 20
-10.664
 11
104.54
 21
-10.6535
  0
LINE
  8
0
 10
104.54
 20
-10.6535
 11
104.508
 21
-10.6516
  0
LINE
  8
0
 10
104.508
 20
-10.6516
 11
104.35
 21
-10.6434
  0
LINE
  8
0
 10
104.35
 20
-10.6434
 11
99.6852
 21
-10.4383
  0
LINE
  8
0
 10
99.6852
 20
-10.4383
 11
99.528
 21
-10.4327
  0
LINE
  8
0
 10
99.528
 20
-10.4327
 11
99.4967
 21
-10.4318
  0
LINE
  8
0
 10
99.4967
 20
-10.4318
 11
99.3402
 21
-10.4286
  0
LINE
  8
0
 10
99.3402
 20
-10.4286
 11
94.6712
 21
-10.37
  0
LINE
  8
0
 10
94.6712
 20
-10.37
 11
94.5117
 21
-10.3693
  0
LINE
  8
0
 10
94.5117
 20
-10.3693
 11
94.4803
 21
-10.3694
  0
LINE
  8
0
 10
94.4803
 20
-10.3694
 11
94.3261
 21
-10.3711
  0
LINE
  8
0
 10
94.3261
 20
-10.3711
 11
89.6582
 21
-10.459
  0
LINE
  8
0
 10
89.6582
 20
-10.459
 11
89.5013
 21
-10.4632
  0
LINE
  8
0
 10
89.5013
 20
-10.4632
 11
89.4699
 21
-10.4642
  0
LINE
  8
0
 10
89.4699
 20
-10.4642
 11
89.313
 21
-10.4709
  0
LINE
  8
0
 10
89.313
 20
-10.4709
 11
84.65
 21
-10.7053
  0
LINE
  8
0
 10
84.65
 20
-10.7053
 11
84.4964
 21
-10.7142
  0
LINE
  8
0
 10
84.4964
 20
-10.7142
 11
84.4651
 21
-10.7162
  0
LINE
  8
0
 10
84.4651
 20
-10.7162
 11
84.305
 21
-10.728
  0
LINE
  8
0
 10
84.305
 20
-10.728
 11
79.6507
 21
-11.1089
  0
LINE
  8
0
 10
79.6507
 20
-11.1089
 11
79.4933
 21
-11.123
  0
LINE
  8
0
 10
79.4933
 20
-11.123
 11
79.4619
 21
-11.1261
  0
LINE
  8
0
 10
79.4619
 20
-11.1261
 11
79.3056
 21
-11.1426
  0
LINE
  8
0
 10
79.3056
 20
-11.1426
 11
74.6659
 21
-11.67
  0
LINE
  8
0
 10
74.6659
 20
-11.67
 11
74.5104
 21
-11.6889
  0
LINE
  8
0
 10
74.5104
 20
-11.6889
 11
74.4795
 21
-11.6929
  0
LINE
  8
0
 10
74.4795
 20
-11.6929
 11
74.3252
 21
-11.7141
  0
LINE
  8
0
 10
74.3252
 20
-11.7141
 11
69.7051
 21
-12.386
  0
LINE
  8
0
 10
69.7051
 20
-12.386
 11
69.5496
 21
-12.4099
  0
LINE
  8
0
 10
69.5496
 20
-12.4099
 11
69.5184
 21
-12.4149
  0
LINE
  8
0
 10
69.5184
 20
-12.4149
 11
69.3623
 21
-12.4414
  0
LINE
  8
0
 10
69.3623
 20
-12.4414
 11
64.7656
 21
-13.2588
  0
LINE
  8
0
 10
64.7656
 20
-13.2588
 11
64.6096
 21
-13.2878
  0
LINE
  8
0
 10
64.6096
 20
-13.2878
 11
64.5789
 21
-13.2937
  0
LINE
  8
0
 10
64.5789
 20
-13.2937
 11
64.4276
 21
-13.3243
  0
LINE
  8
0
 10
64.4276
 20
-13.3243
 11
59.8583
 21
-14.2853
  0
LINE
  8
0
 10
59.8583
 20
-14.2853
 11
59.7034
 21
-14.3191
  0
LINE
  8
0
 10
59.7034
 20
-14.3191
 11
59.6727
 21
-14.3261
  0
LINE
  8
0
 10
59.6727
 20
-14.3261
 11
59.5203
 21
-14.3619
  0
LINE
  8
0
 10
59.5203
 20
-14.3619
 11
54.9832
 21
-15.4664
  0
LINE
  8
0
 10
54.9832
 20
-15.4664
 11
54.8315
 21
-15.5046
  0
LINE
  8
0
 10
54.8315
 20
-15.5046
 11
54.8012
 21
-15.5125
  0
LINE
  8
0
 10
54.8012
 20
-15.5125
 11
54.6494
 21
-15.5532
  0
LINE
  8
0
 10
54.6494
 20
-15.5532
 11
51.5608
 21
-16.4085
  0
LINE
  8
0
 10
51.5608
 20
-16.4085
 11
51.4952
 21
-16.25
  0
LINE
  8
0
 10
51.4952
 20
-16.25
 11
50.3033
 21
-14.6967
  0
LINE
  8
0
 10
50.3033
 20
-14.6967
 11
48.75
 21
-13.5048
  0
LINE
  8
0
 10
48.75
 20
-13.5048
 11
46.9411
 21
-12.7556
  0
LINE
  8
0
 10
46.9411
 20
-12.7556
 11
45
 21
-12.5
  0
LINE
  8
0
 10
45
 20
-12.5
 11
43.0589
 21
-12.7556
  0
LINE
  8
0
 10
43.0589
 20
-12.7556
 11
41.25
 21
-13.5048
  0
LINE
  8
0
 10
41.25
 20
-13.5048
 11
39.6967
 21
-14.6967
  0
LINE
  8
0
 10
39.6967
 20
-14.6967
 11
38.5048
 21
-16.25
  0
LINE
  8
0
 10
38.5048
 20
-16.25
 11
37.7556
 21
-18.0589
  0
LINE
  8
0
 10
37.7556
 20
-18.0589
 11
37.5
 21
-20
  0
LINE
  8
0
 10
37.5
 20
-20
 11
37.6381
 21
-21.0487
  0
LINE
  8
0
 10
37.6381
 20
-21.0487
 11
35.931
 21
-21.6999
  0
LINE
  8
0
 10
35.931
 20
-21.6999
 11
35.7838
 21
-21.7574
  0
LINE
  8
0
 10
35.7838
 20
-21.7574
 11
35.7545
 21
-21.7691
  0
LINE
  8
0
 10
35.7545
 20
-21.7691
 11
35.6097
 21
-21.8283
  0
LINE
  8
0
 10
35.6097
 20
-21.8283
 11
31.3011
 21
-23.6291
  0
LINE
  8
0
 10
31.3011
 20
-23.6291
 11
31.1584
 21
-23.6901
  0
LINE
  8
0
 10
31.1584
 20
-23.6901
 11
31.1296
 21
-23.7026
  0
LINE
  8
0
 10
31.1296
 20
-23.7026
 11
30.9849
 21
-23.7671
  0
LINE
  8
0
 10
30.9849
 20
-23.7671
 11
26.7359
 21
-25.7017
  0
LINE
  8
0
 10
26.7359
 20
-25.7017
 11
26.5948
 21
-25.7673
  0
LINE
  8
0
 10
26.5948
 20
-25.7673
 11
26.5663
 21
-25.7807
  0
LINE
  8
0
 10
26.5663
 20
-25.7807
 11
26.4234
 21
-25.8499
  0
LINE
  8
0
 10
26.4234
 20
-25.8499
 11
22.2369
 21
-27.9173
  0
LINE
  8
0
 10
22.2369
 20
-27.9173
 11
22.0935
 21
-27.9896
  0
LINE
  8
0
 10
22.0935
 20
-27.9896
 11
22.0656
 21
-28.0039
  0
LINE
  8
0
 10
22.0656
 20
-28.0039
 11
21.9301
 21
-28.0748
  0
LINE
  8
0
 10
21.9301
 20
-28.0748
 11
17.8129
 21
-30.2711
  0
LINE
  8
0
 10
17.8129
 20
-30.2711
 11
17.1511
 21
-30.6574
  0
LINE
  8
0
 10
17.1511
 20
-30.6574
 11
17.0218
 21
-30.7397
  0
LINE
  8
0
 10
17.0218
 20
-30.7397
 11
16.3902
 21
-31.1766
  0
LINE
  8
0
 10
16.3902
 20
-31.1766
 11
16.3824
 21
-31.1824
  0
LINE
  8
0
 10
16.3824
 20
-31.1824
 11
15.3108
 21
-32.1119
  0
LINE
  8
0
 10
15.3108
 20
-32.1119
 11
15.2498
 21
-32.1729
  0
LINE
  8
0
 10
15.2498
 20
-32.1729
 11
15.2013
 21
-32.2081
  0
LINE
  8
0
 10
15.2013
 20
-32.2081
 11
15.1994
 21
-32.2101
  0
LINE
  8
0
 10
15.1994
 20
-32.2101
 11
15.1239
 21
-32.2988
  0
LINE
  8
0
 10
15.1239
 20
-32.2988
 11
15.1113
 21
-32.3113
  0
LINE
  8
0
 10
15.1113
 20
-32.3113
 11
14.1824
 21
-33.3824
  0
LINE
  8
0
 10
14.1824
 20
-33.3824
 11
14.1795
 21
-33.3863
  0
LINE
  8
0
 10
14.1795
 20
-33.3863
 11
14.0819
 21
-33.5497
  0
LINE
  8
0
 10
14.0819
 20
-33.5497
 11
14.0772
 21
-33.5463
  0
LINE
  8
0
 10
14.0772
 20
-33.5463
 11
13.9709
 21
-33.6936
  0
LINE
  8
0
 10
13.9709
 20
-33.6936
 11
13.1388
 21
-35.0689
  0
LINE
  8
0
 10
13.1388
 20
-35.0689
 11
13.1379
 21
-35.0709
  0
LINE
  8
0
 10
13.1379
 20
-35.0709
 11
12.7636
 21
-36.1028
  0
LINE
  8
0
 10
12.7636
 20
-36.1028
 11
12.7017
 21
-36.08
  0
LINE
  8
0
 10
12.7017
 20
-36.08
 11
12.6265
 21
-36.2833
  0
LINE
  8
0
 10
12.6265
 20
-36.2833
 11
12.304
 21
-37.3272
  0
LINE
  8
0
 10
12.304
 20
-37.3272
 11
12.303
 21
-37.3311
  0
LINE
  8
0
 10
12.303
 20
-37.3311
 11
12.0794
 21
-38.5345
  0
LINE
  8
0
 10
12.0794
 20
-38.5345
 11
12.0495
 21
-38.777
  0
LINE
  8
0
 10
12.0495
 20
-38.777
 11
11.9746
 21
-39.999
  0
LINE
  8
0
 10
11.9746
 20
-39.999
 11
11.9746
 21
-72.635
  0
LINE
  8
0
 10
11.9746
 20
-72.635
 11
11.0589
 21
-72.7556
  0
LINE
  8
0
 10
11.0589
 20
-72.7556
 11
9.25
 21
-73.5048
  0
LINE
  8
0
 10
9.25
 20
-73.5048
 11
7.69669
 21
-74.6967
  0
LINE
  8
0
 10
7.69669
 20
-74.6967
 11
6.50481
 21
-76.25
  0
LINE
  8
0
 10
6.50481
 20
-76.25
 11
5.75555
 21
-78.0589
  0
LINE
  8
0
 10
5.75555
 20
-78.0589
 11
5.5
 21
-80
  0
LINE
  8
0
 10
5.5
 20
-80
 11
5.75555
 21
-81.9411
  0
LINE
  8
0
 10
5.75555
 20
-81.9411
 11
6.50481
 21
-83.75
  0
LINE
  8
0
 10
6.50481
 20
-83.75
 11
7.69669
 21
-85.3033
  0
LINE
  8
0
 10
7.69669
 20
-85.3033
 11
9.25
 21
-86.4952
  0
LINE
  8
0
 10
9.25
 20
-86.4952
 11
11.0589
 21
-87.2444
  0
LINE
  8
0
 10
11.0589
 20
-87.2444
 11
11.9746
 21
-87.365
  0
LINE
  8
0
 10
11.9746
 20
-87.365
 11
11.9746
 21
-112.001
  0
LINE
  8
0
 10
11.9746
 20
-112.001
 11
11.9761
 21
-112.174
  0
LINE
  8
0
 10
11.9761
 20
-112.174
 11
11.9767
 21
-112.208
  0
LINE
  8
0
 10
11.9767
 20
-112.208
 11
11.9811
 21
-112.38
  0
LINE
  8
0
 10
11.9811
 20
-112.38
 11
11.9821
 21
-112.408
  0
LINE
  8
0
 10
11.9821
 20
-112.408
 11
12.0066
 21
-112.583
  0
LINE
  8
0
 10
12.0066
 20
-112.583
 11
11.9908
 21
-112.584
  0
LINE
  8
0
 10
11.9908
 20
-112.584
 11
11.9945
 21
-112.655
  0
LINE
  8
0
 10
11.9945
 20
-112.655
 11
12.0352
 21
-113.175
  0
LINE
  8
0
 10
12.0352
 20
-113.175
 11
12.1163
 21
-113.95
  0
LINE
  8
0
 10
12.1163
 20
-113.95
 11
12.2209
 21
-114.483
  0
LINE
  8
0
 10
12.2209
 20
-114.483
 11
12.1973
 21
-114.487
  0
LINE
  8
0
 10
12.1973
 20
-114.487
 11
12.2158
 21
-114.608
  0
LINE
  8
0
 10
12.2158
 20
-114.608
 11
12.4213
 21
-115.502
  0
LINE
  8
0
 10
12.4213
 20
-115.502
 11
12.4624
 21
-115.712
  0
LINE
  8
0
 10
12.4624
 20
-115.712
 11
12.4845
 21
-115.787
  0
LINE
  8
0
 10
12.4845
 20
-115.787
 11
12.4866
 21
-115.787
  0
LINE
  8
0
 10
12.4866
 20
-115.787
 11
12.5527
 21
-116.075
  0
LINE
  8
0
 10
12.5527
 20
-116.075
 11
12.7842
 21
-116.82
  0
LINE
  8
0
 10
12.7842
 20
-116.82
 11
13.0331
 21
-117.399
  0
LINE
  8
0
 10
13.0331
 20
-117.399
 11
13.1624
 21
-117.84
  0
LINE
  8
0
 10
13.1624
 20
-117.84
 11
13.6111
 21
-118.786
  0
LINE
  8
0
 10
13.6111
 20
-118.786
 11
13.9822
 21
-119.474
  0
LINE
  8
0
 10
13.9822
 20
-119.474
 11
14.3474
 21
-120.008
  0
LINE
  8
0
 10
14.3474
 20
-120.008
 11
14.5621
 21
-120.419
  0
LINE
  8
0
 10
14.5621
 20
-120.419
 11
14.6785
 21
-120.576
  0
LINE
  8
0
 10
14.6785
 20
-120.576
 11
14.7902
 21
-120.731
  0
LINE
  8
0
 10
14.7902
 20
-120.731
 11
14.7924
 21
-120.73
  0
LINE
  8
0
 10
14.7924
 20
-120.73
 11
15.1909
 21
-121.266
  0
LINE
  8
0
 10
15.1909
 20
-121.266
 11
15.688
 21
-121.867
  0
LINE
  8
0
 10
15.688
 20
-121.867
 11
15.7168
 21
-121.895
  0
LINE
  8
0
 10
15.7168
 20
-121.895
 11
15.7239
 21
-121.904
  0
LINE
  8
0
 10
15.7239
 20
-121.904
 11
16.3859
 21
-122.635
  0
LINE
  8
0
 10
16.3859
 20
-122.635
 11
16.3878
 21
-122.637
  0
LINE
  8
0
 10
16.3878
 20
-122.637
 11
16.7575
 21
-122.988
  0
LINE
  8
0
 10
16.7575
 20
-122.988
 11
16.8333
 21
-123.056
  0
LINE
  8
0
 10
16.8333
 20
-123.056
 11
17.2207
 21
-123.388
  0
LINE
  8
0
 10
17.2207
 20
-123.388
 11
17.8252
 21
-123.881
  0
LINE
  8
0
 10
17.8252
 20
-123.881
 11
18.3279
 21
-124.246
  0
LINE
  8
0
 10
18.3279
 20
-124.246
 11
18.3242
 21
-124.251
  0
LINE
  8
0
 10
18.3242
 20
-124.251
 11
18.359
 21
-124.277
  0
LINE
  8
0
 10
18.359
 20
-124.277
 11
18.4427
 21
-124.329
  0
LINE
  8
0
 10
18.4427
 20
-124.329
 11
18.7134
 21
-124.526
  0
LINE
  8
0
 10
18.7134
 20
-124.526
 11
18.8448
 21
-124.611
  0
LINE
  8
0
 10
18.8448
 20
-124.611
 11
18.8576
 21
-124.591
  0
LINE
  8
0
 10
18.8576
 20
-124.591
 11
19.6144
 21
-125.068
  0
LINE
  8
0
 10
19.6144
 20
-125.068
 11
20.3038
 21
-125.434
  0
LINE
  8
0
 10
20.3038
 20
-125.434
 11
20.4139
 21
-125.492
  0
LINE
  8
0
 10
20.4139
 20
-125.492
 11
20.4357
 21
-125.503
  0
LINE
  8
0
 10
20.4357
 20
-125.503
 11
20.5465
 21
-125.559
  0
LINE
  8
0
 10
20.5465
 20
-125.559
 11
21.1918
 21
-125.854
  0
LINE
  8
0
 10
21.1918
 20
-125.854
 11
21.3228
 21
-125.908
  0
LINE
  8
0
 10
21.3228
 20
-125.908
 11
21.9873
 21
-126.156
  0
LINE
  8
0
 10
21.9873
 20
-126.156
 11
22.1214
 21
-126.2
  0
LINE
  8
0
 10
22.1214
 20
-126.2
 11
22.1474
 21
-126.208
  0
LINE
  8
0
 10
22.1474
 20
-126.208
 11
22.2764
 21
-126.248
  0
LINE
  8
0
 10
22.2764
 20
-126.248
 11
23.0234
 21
-126.475
  0
LINE
  8
0
 10
23.0234
 20
-126.475
 11
23.8934
 21
-126.67
  0
LINE
  8
0
 10
23.8934
 20
-126.67
 11
23.8886
 21
-126.693
  0
LINE
  8
0
 10
23.8886
 20
-126.693
 11
24.0428
 21
-126.726
  0
LINE
  8
0
 10
24.0428
 20
-126.726
 11
24.3565
 21
-126.774
  0
LINE
  8
0
 10
24.3565
 20
-126.774
 11
24.457
 21
-126.797
  0
LINE
  8
0
 10
24.457
 20
-126.797
 11
24.5004
 21
-126.803
  0
LINE
  8
0
 10
24.5004
 20
-126.803
 11
24.5014
 21
-126.797
  0
LINE
  8
0
 10
24.5014
 20
-126.797
 11
25.1493
 21
-126.897
  0
LINE
  8
0
 10
25.1493
 20
-126.897
 11
25.9276
 21
-126.973
  0
LINE
  8
0
 10
25.9276
 20
-126.973
 11
26.4134
 21
-127.009
  0
LINE
  8
0
 10
26.4134
 20
-127.009
 11
26.5108
 21
-127.013
  0
LINE
  8
0
 10
26.5108
 20
-127.013
 11
26.999
 21
-127.025
  0
LINE
  8
0
 10
26.999
 20
-127.025
 11
49.6655
 21
-127.025
  0
LINE
  8
0
 10
49.6655
 20
-127.025
 11
49.9578
 21
-127.043
  0
LINE
  8
0
 10
49.9578
 20
-127.043
 11
49.9958
 21
-127.626
  0
LINE
  8
0
 10
49.9958
 20
-127.626
 11
50.0055
 21
-127.625
  0
LINE
  8
0
 10
50.0055
 20
-127.625
 11
50.0233
 21
-127.986
  0
LINE
  8
0
 10
50.0233
 20
-127.986
 11
50.0427
 21
-128.182
  0
LINE
  8
0
 10
50.0427
 20
-128.182
 11
50.1882
 21
-129.157
  0
LINE
  8
0
 10
50.1882
 20
-129.157
 11
50.1902
 21
-129.167
  0
LINE
  8
0
 10
50.1902
 20
-129.167
 11
50.8669
 21
-131.287
  0
LINE
  8
0
 10
50.8669
 20
-131.287
 11
51.0474
 21
-131.691
  0
LINE
  8
0
 10
51.0474
 20
-131.691
 11
52.1766
 21
-133.61
  0
LINE
  8
0
 10
52.1766
 20
-133.61
 11
52.1824
 21
-133.618
  0
LINE
  8
0
 10
52.1824
 20
-133.618
 11
52.6281
 21
-134.17
  0
LINE
  8
0
 10
52.6281
 20
-134.17
 11
52.721
 21
-134.277
  0
LINE
  8
0
 10
52.721
 20
-134.277
 11
53.2042
 21
-134.796
  0
LINE
  8
0
 10
53.2042
 20
-134.796
 11
53.2081
 21
-134.8
  0
LINE
  8
0
 10
53.2081
 20
-134.8
 11
54.4321
 21
-135.841
  0
LINE
  8
0
 10
54.4321
 20
-135.841
 11
54.692
 21
-136.028
  0
LINE
  8
0
 10
54.692
 20
-136.028
 11
56.067
 21
-136.86
  0
LINE
  8
0
 10
56.067
 20
-136.86
 11
56.0709
 21
-136.862
  0
LINE
  8
0
 10
56.0709
 20
-136.862
 11
56.4462
 21
-137.04
  0
LINE
  8
0
 10
56.4462
 20
-137.04
 11
56.5221
 21
-137.074
  0
LINE
  8
0
 10
56.5221
 20
-137.074
 11
56.9049
 21
-137.237
  0
LINE
  8
0
 10
56.9049
 20
-137.237
 11
56.9098
 21
-137.239
  0
LINE
  8
0
 10
56.9098
 20
-137.239
 11
58.7328
 21
-137.773
  0
LINE
  8
0
 10
58.7328
 20
-137.773
 11
59.1041
 21
-137.845
  0
LINE
  8
0
 10
59.1041
 20
-137.845
 11
60.9951
 21
-138.025
  0
LINE
  8
0
 10
60.9951
 20
-138.025
 11
98.8933
 21
-138.025
  0
LINE
  8
0
 10
98.8933
 20
-138.025
 11
102.723
 21
-138.099
  0
LINE
  8
0
 10
102.723
 20
-138.099
 11
106.441
 21
-138.312
  0
LINE
  8
0
 10
106.441
 20
-138.312
 11
110.145
 21
-138.67
  0
LINE
  8
0
 10
110.145
 20
-138.67
 11
113.836
 21
-139.169
  0
LINE
  8
0
 10
113.836
 20
-139.169
 11
117.503
 21
-139.809
  0
LINE
  8
0
 10
117.503
 20
-139.809
 11
121.143
 21
-140.589
  0
LINE
  8
0
 10
121.143
 20
-140.589
 11
124.751
 21
-141.509
  0
LINE
  8
0
 10
124.751
 20
-141.509
 11
128.323
 21
-142.567
  0
LINE
  8
0
 10
128.323
 20
-142.567
 11
131.849
 21
-143.76
  0
LINE
  8
0
 10
131.849
 20
-143.76
 11
135.326
 21
-145.087
  0
LINE
  8
0
 10
135.326
 20
-145.087
 11
138.749
 21
-146.548
  0
LINE
  8
0
 10
138.749
 20
-146.548
 11
142.116
 21
-148.14
  0
LINE
  8
0
 10
142.116
 20
-148.14
 11
145.434
 21
-149.867
  0
LINE
  8
0
 10
145.434
 20
-149.867
 11
148.378
 21
-151.536
  0
LINE
  8
0
 10
148.378
 20
-151.536
 11
148.606
 21
-151.661
  0
LINE
  8
0
 10
148.606
 20
-151.661
 11
148.651
 21
-151.685
  0
LINE
  8
0
 10
148.651
 20
-151.685
 11
148.882
 21
-151.805
  0
LINE
  8
0
 10
148.882
 20
-151.805
 11
148.886
 21
-151.806
  0
LINE
  8
0
 10
148.886
 20
-151.806
 11
150.113
 21
-152.321
  0
LINE
  8
0
 10
150.113
 20
-152.321
 11
150.364
 21
-152.407
  0
LINE
  8
0
 10
150.364
 20
-152.407
 11
151.648
 21
-152.754
  0
LINE
  8
0
 10
151.648
 20
-152.754
 11
151.653
 21
-152.755
  0
LINE
  8
0
 10
151.653
 20
-152.755
 11
152.629
 21
-152.901
  0
LINE
  8
0
 10
152.629
 20
-152.901
 11
152.825
 21
-152.92
  0
LINE
  8
0
 10
152.825
 20
-152.92
 11
153.811
 21
-152.969
  0
LINE
  8
0
 10
153.811
 20
-152.969
 11
153.819
 21
-152.969
  0
LINE
  8
0
 10
153.819
 20
-152.969
 11
155.686
 21
-152.751
  0
LINE
  8
0
 10
124.904
 20
-20.4184
 11
123.93
 21
-18.9015
  0
LINE
  8
0
 10
123.93
 20
-18.9015
 11
123.93
 21
-17.0984
  0
LINE
  8
0
 10
123.93
 20
-17.0984
 11
124.904
 21
-15.5816
  0
LINE
  8
0
 10
124.904
 20
-15.5816
 11
126.545
 21
-14.8326
  0
LINE
  8
0
 10
126.545
 20
-14.8326
 11
128.329
 21
-15.0892
  0
LINE
  8
0
 10
128.329
 20
-15.0892
 11
129.692
 21
-16.2699
  0
LINE
  8
0
 10
129.692
 20
-16.2699
 11
130.2
 21
-18
  0
LINE
  8
0
 10
130.2
 20
-18
 11
129.692
 21
-19.73
  0
LINE
  8
0
 10
129.692
 20
-19.73
 11
128.329
 21
-20.9108
  0
LINE
  8
0
 10
128.329
 20
-20.9108
 11
126.545
 21
-21.1674
  0
LINE
  8
0
 10
126.545
 20
-21.1674
 11
124.904
 21
-20.4184
  0
LINE
  8
0
 10
42.9044
 20
-22.4184
 11
41.9296
 21
-20.9015
  0
LINE
  8
0
 10
41.9296
 20
-20.9015
 11
41.9296
 21
-19.0984
  0
LINE
  8
0
 10
41.9296
 20
-19.0984
 11
42.9044
 21
-17.5816
  0
LINE
  8
0
 10
42.9044
 20
-17.5816
 11
44.5446
 21
-16.8326
  0
LINE
  8
0
 10
44.5446
 20
-16.8326
 11
46.3293
 21
-17.0892
  0
LINE
  8
0
 10
46.3293
 20
-17.0892
 11
47.692
 21
-18.2699
  0
LINE
  8
0
 10
47.692
 20
-18.2699
 11
48.2
 21
-20
  0
LINE
  8
0
 10
48.2
 20
-20
 11
47.692
 21
-21.73
  0
LINE
  8
0
 10
47.692
 20
-21.73
 11
46.3293
 21
-22.9108
  0
LINE
  8
0
 10
46.3293
 20
-22.9108
 11
44.5446
 21
-23.1674
  0
LINE
  8
0
 10
44.5446
 20
-23.1674
 11
42.9044
 21
-22.4184
  0
LINE
  8
0
 10
83
 20
-38
 11
83
 21
-24
  0
LINE
  8
0
 10
83
 20
-24
 11
97
 21
-24
  0
LINE
  8
0
 10
97
 20
-24
 11
97
 21
-38
  0
LINE
  8
0
 10
97
 20
-38
 11
83
 21
-38
  0
LINE
  8
0
 10
64
 20
-42
 11
64
 21
-28
  0
LINE
  8
0
 10
64
 20
-28
 11
78
 21
-28
  0
LINE
  8
0
 10
78
 20
-28
 11
78
 21
-42
  0
LINE
  8
0
 10
78
 20
-42
 11
64
 21
-42
  0
LINE
  8
0
 10
102
 20
-46
 11
102
 21
-32
  0
LINE
  8
0
 10
102
 20
-32
 11
116
 21
-32
  0
LINE
  8
0
 10
116
 20
-32
 11
116
 21
-46
  0
LINE
  8
0
 10
116
 20
-46
 11
102
 21
-46
  0
LINE
  8
0
 10
121
 20
-48
 11
121
 21
-34
  0
LINE
  8
0
 10
121
 20
-34
 11
135
 21
-34
  0
LINE
  8
0
 10
135
 20
-34
 11
135
 21
-48
  0
LINE
  8
0
 10
135
 20
-48
 11
121
 21
-48
  0
LINE
  8
0
 10
45
 20
-56
 11
45
 21
-42
  0
LINE
  8
0
 10
45
 20
-42
 11
59
 21
-42
  0
LINE
  8
0
 10
59
 20
-42
 11
59
 21
-56
  0
LINE
  8
0
 10
59
 20
-56
 11
45
 21
-56
  0
LINE
  8
0
 10
83
 20
-57
 11
83
 21
-43
  0
LINE
  8
0
 10
83
 20
-43
 11
97
 21
-43
  0
LINE
  8
0
 10
97
 20
-43
 11
97
 21
-57
  0
LINE
  8
0
 10
97
 20
-57
 11
83
 21
-57
  0
LINE
  8
0
 10
26
 20
-59
 11
26
 21
-45
  0
LINE
  8
0
 10
26
 20
-45
 11
40
 21
-45
  0
LINE
  8
0
 10
40
 20
-45
 11
40
 21
-59
  0
LINE
  8
0
 10
40
 20
-59
 11
26
 21
-59
  0
LINE
  8
0
 10
170.904
 20
-52.4184
 11
169.93
 21
-50.9015
  0
LINE
  8
0
 10
169.93
 20
-50.9015
 11
169.93
 21
-49.0984
  0
LINE
  8
0
 10
169.93
 20
-49.0984
 11
170.904
 21
-47.5816
  0
LINE
  8
0
 10
170.904
 20
-47.5816
 11
172.545
 21
-46.8326
  0
LINE
  8
0
 10
172.545
 20
-46.8326
 11
174.329
 21
-47.0892
  0
LINE
  8
0
 10
174.329
 20
-47.0892
 11
175.692
 21
-48.2699
  0
LINE
  8
0
 10
175.692
 20
-48.2699
 11
176.2
 21
-50
  0
LINE
  8
0
 10
176.2
 20
-50
 11
175.692
 21
-51.73
  0
LINE
  8
0
 10
175.692
 20
-51.73
 11
174.329
 21
-52.9108
  0
LINE
  8
0
 10
174.329
 20
-52.9108
 11
172.545
 21
-53.1674
  0
LINE
  8
0
 10
172.545
 20
-53.1674
 11
170.904
 21
-52.4184
  0
LINE
  8
0
 10
64
 20
-61
 11
64
 21
-47
  0
LINE
  8
0
 10
64
 20
-47
 11
78
 21
-47
  0
LINE
  8
0
 10
78
 20
-47
 11
78
 21
-61
  0
LINE
  8
0
 10
78
 20
-61
 11
64
 21
-61
  0
LINE
  8
0
 10
102
 20
-65
 11
102
 21
-51
  0
LINE
  8
0
 10
102
 20
-51
 11
116
 21
-51
  0
LINE
  8
0
 10
116
 20
-51
 11
116
 21
-65
  0
LINE
  8
0
 10
116
 20
-65
 11
102
 21
-65
  0
LINE
  8
0
 10
121
 20
-67
 11
121
 21
-53
  0
LINE
  8
0
 10
121
 20
-53
 11
135
 21
-53
  0
LINE
  8
0
 10
135
 20
-53
 11
135
 21
-67
  0
LINE
  8
0
 10
135
 20
-67
 11
121
 21
-67
  0
LINE
  8
0
 10
45
 20
-75
 11
45
 21
-61
  0
LINE
  8
0
 10
45
 20
-61
 11
59
 21
-61
  0
LINE
  8
0
 10
59
 20
-61
 11
59
 21
-75
  0
LINE
  8
0
 10
59
 20
-75
 11
45
 21
-75
  0
LINE
  8
0
 10
83
 20
-76
 11
83
 21
-62
  0
LINE
  8
0
 10
83
 20
-62
 11
97
 21
-62
  0
LINE
  8
0
 10
97
 20
-62
 11
97
 21
-76
  0
LINE
  8
0
 10
97
 20
-76
 11
83
 21
-76
  0
LINE
  8
0
 10
26
 20
-78
 11
26
 21
-64
  0
LINE
  8
0
 10
26
 20
-64
 11
40
 21
-64
  0
LINE
  8
0
 10
40
 20
-64
 11
40
 21
-78
  0
LINE
  8
0
 10
40
 20
-78
 11
26
 21
-78
  0
LINE
  8
0
 10
64
 20
-80
 11
64
 21
-66
  0
LINE
  8
0
 10
64
 20
-66
 11
78
 21
-66
  0
LINE
  8
0
 10
78
 20
-66
 11
78
 21
-80
  0
LINE
  8
0
 10
78
 20
-80
 11
64
 21
-80
  0
LINE
  8
0
 10
102
 20
-84
 11
102
 21
-70
  0
LINE
  8
0
 10
102
 20
-70
 11
116
 21
-70
  0
LINE
  8
0
 10
116
 20
-70
 11
116
 21
-84
  0
LINE
  8
0
 10
116
 20
-84
 11
102
 21
-84
  0
LINE
  8
0
 10
121
 20
-86
 11
121
 21
-72
  0
LINE
  8
0
 10
121
 20
-72
 11
135
 21
-72
  0
LINE
  8
0
 10
135
 20
-72
 11
135
 21
-86
  0
LINE
  8
0
 10
135
 20
-86
 11
121
 21
-86
  0
LINE
  8
0
 10
10.9044
 20
-82.4184
 11
9.92961
 21
-80.9015
  0
LINE
  8
0
 10
9.92961
 20
-80.9015
 11
9.92961
 21
-79.0984
  0
LINE
  8
0
 10
9.92961
 20
-79.0984
 11
10.9044
 21
-77.5816
  0
LINE
  8
0
 10
10.9044
 20
-77.5816
 11
12.5446
 21
-76.8326
  0
LINE
  8
0
 10
12.5446
 20
-76.8326
 11
14.3293
 21
-77.0892
  0
LINE
  8
0
 10
14.3293
 20
-77.0892
 11
15.692
 21
-78.2699
  0
LINE
  8
0
 10
15.692
 20
-78.2699
 11
16.2
 21
-80
  0
LINE
  8
0
 10
16.2
 20
-80
 11
15.692
 21
-81.73
  0
LINE
  8
0
 10
15.692
 20
-81.73
 11
14.3293
 21
-82.9108
  0
LINE
  8
0
 10
14.3293
 20
-82.9108
 11
12.5446
 21
-83.1674
  0
LINE
  8
0
 10
12.5446
 20
-83.1674
 11
10.9044
 21
-82.4184
  0
LINE
  8
0
 10
45
 20
-94
 11
45
 21
-80
  0
LINE
  8
0
 10
45
 20
-80
 11
59
 21
-80
  0
LINE
  8
0
 10
59
 20
-80
 11
59
 21
-94
  0
LINE
  8
0
 10
59
 20
-94
 11
45
 21
-94
  0
LINE
  8
0
 10
83
 20
-95
 11
83
 21
-81
  0
LINE
  8
0
 10
83
 20
-81
 11
97
 21
-81
  0
LINE
  8
0
 10
97
 20
-81
 11
97
 21
-95
  0
LINE
  8
0
 10
97
 20
-95
 11
83
 21
-95
  0
LINE
  8
0
 10
26
 20
-97
 11
26
 21
-83
  0
LINE
  8
0
 10
26
 20
-83
 11
40
 21
-83
  0
LINE
  8
0
 10
40
 20
-83
 11
40
 21
-97
  0
LINE
  8
0
 10
40
 20
-97
 11
26
 21
-97
  0
LINE
  8
0
 10
64
 20
-99
 11
64
 21
-85
  0
LINE
  8
0
 10
64
 20
-85
 11
78
 21
-85
  0
LINE
  8
0
 10
78
 20
-85
 11
78
 21
-99
  0
LINE
  8
0
 10
78
 20
-99
 11
64
 21
-99
  0
LINE
  8
0
 10
102
 20
-103
 11
102
 21
-89
  0
LINE
  8
0
 10
102
 20
-89
 11
116
 21
-89
  0
LINE
  8
0
 10
116
 20
-89
 11
116
 21
-103
  0
LINE
  8
0
 10
116
 20
-103
 11
102
 21
-103
  0
LINE
  8
0
 10
121
 20
-105
 11
121
 21
-91
  0
LINE
  8
0
 10
121
 20
-91
 11
135
 21
-91
  0
LINE
  8
0
 10
135
 20
-91
 11
135
 21
-105
  0
LINE
  8
0
 10
135
 20
-105
 11
121
 21
-105
  0
LINE
  8
0
 10
45
 20
-113
 11
45
 21
-99
  0
LINE
  8
0
 10
45
 20
-99
 11
59
 21
-99
  0
LINE
  8
0
 10
59
 20
-99
 11
59
 21
-113
  0
LINE
  8
0
 10
59
 20
-113
 11
45
 21
-113
  0
LINE
  8
0
 10
26
 20
-116
 11
26
 21
-102
  0
LINE
  8
0
 10
26
 20
-102
 11
40
 21
-102
  0
LINE
  8
0
 10
40
 20
-102
 11
40
 21
-116
  0
LINE
  8
0
 10
40
 20
-116
 11
26
 21
-116
  0
LINE
  8
0
 10
102
 20
-124
 11
102
 21
-110
  0
LINE
  8
0
 10
102
 20
-110
 11
116
 21
-110
  0
LINE
  8
0
 10
116
 20
-110
 11
116
 21
-124
  0
LINE
  8
0
 10
116
 20
-124
 11
102
 21
-124
  0
LINE
  8
0
 10
83
 20
-124
 11
83
 21
-110
  0
LINE
  8
0
 10
83
 20
-110
 11
97
 21
-110
  0
LINE
  8
0
 10
97
 20
-110
 11
97
 21
-124
  0
LINE
  8
0
 10
97
 20
-124
 11
83
 21
-124
  0
LINE
  8
0
 10
64
 20
-124
 11
64
 21
-110
  0
LINE
  8
0
 10
64
 20
-110
 11
78
 21
-110
  0
LINE
  8
0
 10
78
 20
-110
 11
78
 21
-124
  0
LINE
  8
0
 10
78
 20
-124
 11
64
 21
-124
  0
LINE
  8
0
 10
121.627
 20
-124.75
 11
125.25
 21
-111.227
  0
LINE
  8
0
 10
125.25
 20
-111.227
 11
138.773
 21
-114.85
  0
LINE
  8
0
 10
138.773
 20
-114.85
 11
135.15
 21
-128.373
  0
LINE
  8
0
 10
135.15
 20
-128.373
 11
121.627
 21
-124.75
  0
LINE
  8
0
 10
140.438
 20
-130.562
 11
147.438
 21
-118.438
  0
LINE
  8
0
 10
147.438
 20
-118.438
 11
159.562
 21
-125.438
  0
LINE
  8
0
 10
159.562
 20
-125.438
 11
152.562
 21
-137.562
  0
LINE
  8
0
 10
152.562
 20
-137.562
 11
140.438
 21
-130.562
  0
LINE
  8
0
 10
162.904
 20
-142.418
 11
161.93
 21
-140.902
  0
LINE
  8
0
 10
161.93
 20
-140.902
 11
161.93
 21
-139.098
  0
LINE
  8
0
 10
161.93
 20
-139.098
 11
162.904
 21
-137.582
  0
LINE
  8
0
 10
162.904
 20
-137.582
 11
164.545
 21
-136.833
  0
LINE
  8
0
 10
164.545
 20
-136.833
 11
166.329
 21
-137.089
  0
LINE
  8
0
 10
166.329
 20
-137.089
 11
167.692
 21
-138.27
  0
LINE
  8
0
 10
167.692
 20
-138.27
 11
168.2
 21
-140
  0
LINE
  8
0
 10
168.2
 20
-140
 11
167.692
 21
-141.73
  0
LINE
  8
0
 10
167.692
 20
-141.73
 11
166.329
 21
-142.911
  0
LINE
  8
0
 10
166.329
 20
-142.911
 11
164.545
 21
-143.167
  0
LINE
  8
0
 10
164.545
 20
-143.167
 11
162.904
 21
-142.418
  0
ENDSEC
  0
SECTION
  2
OBJECTS
  0
DICTIONARY
  0
ENDSEC
  0
EOF
